<?xml version="1.0" encoding="UTF-8" standalone="no"?>
<!-- Created with Inkscape (http://www.inkscape.org/) -->

<svg
   xmlns:dc="http://purl.org/dc/elements/1.1/"
   xmlns:cc="http://creativecommons.org/ns#"
   xmlns:rdf="http://www.w3.org/1999/02/22-rdf-syntax-ns#"
   xmlns:svg="http://www.w3.org/2000/svg"
   xmlns="http://www.w3.org/2000/svg"
   xmlns:sodipodi="http://sodipodi.sourceforge.net/DTD/sodipodi-0.dtd"
   xmlns:inkscape="http://www.inkscape.org/namespaces/inkscape"
   width="141.18195mm"
   height="141.20142mm"
   viewBox="0 0 141.18195 141.20142"
   version="1.1"
   id="svg8"
   inkscape:version="0.92.1 r15371"
   sodipodi:docname="orcid.svg">
  <defs
     id="defs2" />
  <sodipodi:namedview
     id="base"
     pagecolor="#ffffff"
     bordercolor="#666666"
     borderopacity="1.0"
     inkscape:pageopacity="0.0"
     inkscape:pageshadow="2"
     inkscape:zoom="0.35"
     inkscape:cx="-430.25915"
     inkscape:cy="71.932079"
     inkscape:document-units="mm"
     inkscape:current-layer="layer1"
     showgrid="false"
     fit-margin-top="0"
     fit-margin-left="0"
     fit-margin-right="0"
     fit-margin-bottom="0"
     inkscape:window-width="1920"
     inkscape:window-height="1136"
     inkscape:window-x="0"
     inkscape:window-y="27"
     inkscape:window-maximized="1" />
  <metadata
     id="metadata5">
    <rdf:RDF>
      <cc:Work
         rdf:about="">
        <dc:format>image/svg+xml</dc:format>
        <dc:type
           rdf:resource="http://purl.org/dc/dcmitype/StillImage" />
        <dc:title></dc:title>
      </cc:Work>
    </rdf:RDF>
  </metadata>
  <g
     inkscape:label="Layer 1"
     inkscape:groupmode="layer"
     id="layer1"
     transform="translate(-30.306662,-28.175849)">
    <path
       style="fill:#a6ce39;fill-opacity:1;stroke-width:1"
       d="m 94.336442,169.17248 c -0.94588,-0.12075 -2.68512,-0.33064 -3.86496,-0.46643 -1.17985,-0.13579 -2.39241,-0.37921 -2.69459,-0.54093 -0.30217,-0.16173 -0.94419,-0.29751 -1.4267,-0.30175 -0.48251,-0.004 -1.71073,-0.24948 -2.72937,-0.54499 -1.01865,-0.29551 -2.32834,-0.64113 -2.91042,-0.76804 -1.06085,-0.2313 -4.40107,-1.35908 -6.87917,-2.32266 -2.93248,-1.14026 -8.4985,-4.01564 -10.0206,-5.17661 -0.50836,-0.38774 -0.99433,-0.70499 -1.07992,-0.70499 -0.22832,0 -2.34876,-1.37472 -2.65781,-1.72311 -0.14552,-0.16405 -0.89241,-0.7193 -1.65974,-1.23389 -0.76734,-0.5146 -1.97914,-1.48854 -2.69289,-2.16432 -0.71375,-0.67577 -1.4063,-1.22868 -1.53902,-1.22868 -0.28615,0 -6.08273,-5.95144 -7.6021,-7.80519 -0.58208,-0.71019 -1.38576,-1.67129 -1.78594,-2.13578 -0.40018,-0.46448 -0.7276,-0.97762 -0.7276,-1.14032 0,-0.16269 -0.11239,-0.2958 -0.24975,-0.2958 -0.13736,0 -0.64143,-0.65484 -1.12015,-1.4552 -0.47872,-0.80037 -0.94745,-1.45521 -1.04162,-1.45521 -0.0942,0 -0.50062,-0.65103 -0.90321,-1.44674 -0.40259,-0.7957 -0.8335,-1.38399 -0.95758,-1.3073 -0.12409,0.0767 -0.22561,-0.0285 -0.22561,-0.23365 0,-0.3548 -0.4181,-1.20659 -1.91014,-3.89148 -0.36391,-0.65485 -0.98939,-2.02407 -1.38996,-3.04271 -0.40058,-1.01865 -0.81629,-1.97115 -0.92382,-2.11667 -0.10752,-0.14552 -0.51492,-1.27661 -0.90533,-2.51354 -0.3904,-1.23693 -0.80451,-2.42755 -0.92023,-2.64583 -0.11573,-0.21828 -0.42477,-1.28985 -0.68676,-2.38125 -0.26199,-1.09141 -0.63945,-2.43327 -0.8388,-2.98192 -0.19935,-0.54865 -0.36246,-1.44757 -0.36246,-1.9976 0,-0.55004 -0.11273,-1.11318 -0.2505,-1.25142 -0.13778,-0.13825 -0.32656,-1.20094 -0.4195,-2.36154 -0.0929,-1.16061 -0.27788,-2.31364 -0.41096,-2.5623 -0.33757,-0.63076 -0.3161,-16.284845 0.0226,-16.494185 0.14552,-0.0899 0.26459,-0.72679 0.26459,-1.41524 0,-0.68844 0.17859,-1.93738 0.39687,-2.77542 0.21828,-0.83803 0.39688,-1.87927 0.39688,-2.31385 0,-0.43458 0.19172,-1.08275 0.42604,-1.440373 0.274,-0.41818 0.36411,-0.89697 0.25251,-1.34163 -0.1061,-0.42272 -0.0285,-0.91275 0.19969,-1.26101 0.20527,-0.31328 0.57071,-1.4379 0.81208,-2.49914 0.24138,-1.06125 0.55212,-2.13177 0.69054,-2.37894 0.38409,-0.68587 1.49688,-3.53902 1.67615,-4.2976 0.12904,-0.54605 2.0597,-4.35585 3.0779,-6.07368 0.12938,-0.21828 0.30803,-0.57547 0.397,-0.79375 0.21925,-0.53792 0.68443,-1.30179 1.39777,-2.29529 0.32743,-0.45601 0.59532,-0.931 0.59532,-1.05555 0,-0.12454 0.29765,-0.54745 0.66146,-0.93979 0.3638,-0.39235 0.66145,-0.77923 0.66145,-0.85975 0,-0.17703 2.61447,-3.71188 3.43128,-4.6392 0.32045,-0.3638 0.84036,-0.99842 1.15537,-1.41027 1.2844,-1.67928 4.41834,-4.85629 6.65815,-6.74966 1.30968,-1.10712 2.8575,-2.46121 3.43958,-3.00907 0.58208,-0.54787 1.15409,-0.99741 1.27112,-0.99898 0.11703,-0.002 0.59328,-0.35949 1.05833,-0.79538 0.46505,-0.43589 1.03163,-0.79308 1.25907,-0.79375 0.22743,-6.6e-4 0.75866,-0.36148 1.1805,-0.80178 0.42184,-0.44031 0.91052,-0.74549 1.08594,-0.67817 0.17542,0.0673 0.37323,-0.0189 0.43958,-0.19163 0.0663,-0.17271 1.05846,-0.83625 2.20471,-1.47454 1.14624,-0.63828 2.40668,-1.38242 2.80097,-1.65364 0.39429,-0.27122 0.85008,-0.49313 1.01286,-0.49313 0.16278,0 1.14987,-0.40949 2.19353,-0.90997 2.1943,-1.05227 3.1709,-1.45038 4.27881,-1.74421 0.43656,-0.11579 1.4178,-0.4483 2.18055,-0.73891 0.76274,-0.29061 1.86344,-0.60891 2.446,-0.70734 0.58257,-0.0984 1.1264,-0.28765 1.20851,-0.42051 0.0821,-0.13286 0.50327,-0.24156 0.93592,-0.24156 0.43265,0 1.21407,-0.1786 1.73649,-0.39688 0.52242,-0.21828 1.38775,-0.39687 1.92296,-0.39687 0.53521,0 1.0966,-0.12349 1.24753,-0.27442 0.15093,-0.15094 1.30992,-0.3475 2.57553,-0.43682 1.2656,-0.0893 2.36358,-0.26348 2.43994,-0.38703 0.1925,-0.31147 15.449458,-0.2837 16.838708,0.0307 1.027,0.23238 2.3783,0.45602 6.15536,1.01868 0.7276,0.1084 1.46378,0.28492 1.63596,0.39228 0.17218,0.10736 0.82702,0.30014 1.45521,0.42839 1.30963,0.26739 4.25706,1.19183 7.88903,2.47435 2.25063,0.79475 7.5994,3.23077 7.9375,3.61503 0.14594,0.16585 1.02876,0.69195 2.24896,1.34022 1.11823,0.59409 2.88859,1.74075 3.33522,2.16021 0.20736,0.19475 0.8147,0.57743 1.34964,0.85041 0.53494,0.27297 1.03541,0.65993 1.11214,0.85989 0.0767,0.19997 0.29735,0.36358 0.49026,0.36358 0.1929,0 0.83099,0.44648 1.41797,0.99218 0.58698,0.54571 1.65327,1.46264 2.36954,2.03763 2.0453,1.64187 5.85926,5.40191 7.39346,7.28894 0.76903,0.94588 1.88264,2.25557 2.47468,2.91041 0.59205,0.65485 1.07983,1.32488 1.08396,1.48896 0.004,0.16408 0.19818,0.45658 0.43123,0.64999 0.42084,0.34927 2.22211,3.03061 2.22211,3.3078 0,0.0796 0.31448,0.55711 0.69884,1.06104 0.86418,1.13299 1.62904,2.49524 3.03109,5.39846 1.60159,3.31643 2.00958,4.25088 2.36817,5.42396 0.17793,0.58208 0.54552,1.50007 0.81687,2.03998 0.27135,0.53991 0.49336,1.17676 0.49336,1.41522 0,0.23847 0.16672,0.80876 0.37049,1.26731 0.45827,1.03128 1.47107,4.87571 1.75311,6.654573 0.11537,0.72761 0.33675,1.79917 0.49197,2.38125 0.15523,0.58209 0.28507,1.63171 0.28854,2.3325 0.003,0.70079 0.12187,1.49009 0.2631,1.75399 0.38791,0.72482 0.58502,10.050145 0.28552,13.508315 -0.4858,5.60915 -0.7365,7.57618 -1.03726,8.13815 -0.16434,0.30707 -0.2988,1.09489 -0.2988,1.75071 0,0.65583 -0.11906,1.26599 -0.26458,1.35593 -0.14552,0.0899 -0.26459,0.50808 -0.26459,0.9292 0,0.42113 -0.11247,1.03919 -0.24993,1.37345 -0.13746,0.33427 -0.68019,1.97698 -1.20607,3.65047 -0.52588,1.67349 -1.19491,3.56358 -1.48674,4.2002 -0.29182,0.63663 -0.77086,1.76772 -1.06452,2.51355 -0.62692,1.5922 -2.56148,5.36512 -2.97901,5.80988 -0.15937,0.16977 -0.55704,0.84445 -0.88371,1.49929 -0.62555,1.25401 -1.16,2.1602 -1.4044,2.38125 -0.0804,0.0728 -0.4032,0.54901 -0.71724,1.05834 -0.49802,0.80769 -0.83648,1.24876 -2.17401,2.8331 -0.14838,0.17576 -0.26985,0.41389 -0.26993,0.52917 -8e-5,0.11528 -0.50974,0.74538 -1.13259,1.40023 -0.62285,0.65484 -1.66458,1.84242 -2.31496,2.63906 -1.26773,1.55281 -4.84272,5.05817 -7.00335,6.86694 -0.7276,0.60912 -1.56104,1.31289 -1.85208,1.56394 -0.29104,0.25105 -0.88439,0.68195 -1.31855,0.95755 -0.43417,0.2756 -1.08779,0.77778 -1.45251,1.11597 -0.36471,0.33818 -0.78339,0.61818 -0.9304,0.62222 -0.14701,0.004 -0.61455,0.36123 -1.03899,0.79375 -0.42443,0.43252 -0.98296,0.7864 -1.24116,0.7864 -0.25819,0 -0.53055,0.0989 -0.60523,0.21969 -0.47389,0.76678 -9.25468,5.24697 -11.66941,5.95404 -0.7276,0.21305 -1.8587,0.61955 -2.51354,0.90334 -0.65484,0.28378 -1.66687,0.60191 -2.24896,0.70695 -0.58208,0.10504 -1.65364,0.37388 -2.38125,0.59741 -2.52789,0.77661 -2.95182,0.87899 -3.63958,0.87899 -0.38038,0 -1.01361,0.12243 -1.40719,0.27207 -0.39358,0.14964 -1.68125,0.3891 -2.8615,0.53215 -1.18024,0.14304 -2.9198,0.35907 -3.86569,0.48008 -2.24408,0.28708 -11.025288,0.29843 -13.229158,0.0171 z m -16.47354,-67.96279 c 0.0495,-22.571558 -0.007,-28.738058 -0.26458,-28.901678 -0.18013,-0.11441 -1.93485,-0.20984 -3.89938,-0.21208 l -3.57187,-0.004 0.0654,28.905758 c 0.036,15.89816 0.0657,28.93878 0.0661,28.97915 5.2e-4,0.0404 1.6974,0.0404 3.77108,0 l 3.77031,-0.0734 z m 42.270418,28.3763 c 0.58208,-0.16561 1.7727,-0.4527 2.64583,-0.63797 0.87312,-0.18528 1.97807,-0.55213 2.45544,-0.81524 0.47737,-0.2631 1.07969,-0.47837 1.33849,-0.47837 0.2588,0 0.70167,-0.17481 0.98414,-0.38846 0.28248,-0.21365 0.66011,-0.39225 0.83918,-0.39688 0.40814,-0.0106 2.83951,-1.60297 6.11687,-4.00622 0.39204,-0.28748 0.52781,-0.58851 0.41768,-0.92605 -0.10045,-0.30785 -0.0766,-0.38146 0.0622,-0.19149 0.15907,0.21786 0.51657,0.0417 1.21559,-0.59887 0.54463,-0.49912 0.99024,-1.02495 0.99024,-1.16851 0,-0.14356 0.11104,-0.26102 0.24675,-0.26102 0.13571,0 0.31586,-0.20836 0.40032,-0.46302 0.0845,-0.25467 0.56233,-0.93056 1.06192,-1.50198 0.49959,-0.57143 1.18099,-1.61323 1.51423,-2.31511 0.33323,-0.70188 0.69682,-1.27614 0.80799,-1.27614 0.11117,0 0.20212,-0.18021 0.20212,-0.40047 0,-0.22025 0.10154,-0.60721 0.22565,-0.85989 0.91127,-1.85536 1.10264,-2.42686 1.48277,-4.42818 0.0553,-0.29105 0.2748,-1.01044 0.48782,-1.59866 0.29796,-0.82274 0.37044,-2.16575 0.31417,-5.82084 -0.0613,-3.981195 -0.17418,-5.137325 -0.69646,-7.132595 -0.34283,-1.30969 -0.73675,-2.55775 -0.87538,-2.77347 -0.13863,-0.21572 -0.27529,-0.57291 -0.30369,-0.79375 -0.0674,-0.52373 -0.70859,-2.17918 -0.97543,-2.5182 -0.11454,-0.14552 -0.55978,-0.80036 -0.98942,-1.4552 -0.42964,-0.65485 -1.13358,-1.72641 -1.56431,-2.38125 -0.93768,-1.425583 -5.93544,-6.350003 -6.44456,-6.350003 -0.19718,0 -0.63813,-0.29766 -0.97991,-0.66146 -0.34178,-0.3638 -0.76467,-0.66146 -0.93977,-0.66146 -0.17509,0 -0.46657,-0.17859 -0.64773,-0.39688 -0.18116,-0.21828 -0.51378,-0.39687 -0.73917,-0.39687 -0.22538,0 -0.62529,-0.19503 -0.88868,-0.43339 -0.35674,-0.32285 -0.56834,-0.35916 -0.82957,-0.14235 -0.26498,0.21991 -0.44212,0.16417 -0.72483,-0.22807 -0.20578,-0.28551 -0.61576,-0.52289 -0.91106,-0.52752 -0.29529,-0.005 -0.76801,-0.18322 -1.05049,-0.39688 -0.28247,-0.21365 -0.95434,-0.38846 -1.49304,-0.38846 -0.6246,0 -1.03439,-0.14314 -1.13107,-0.3951 -0.11729,-0.30564 -0.56634,-0.3826 -1.98307,-0.3399 -1.13366,0.0342 -1.98022,-0.0683 -2.22191,-0.26885 -0.29906,-0.24819 -3.48003,-0.30798 -13.58951,-0.25541 l -13.199048,0.0686 -0.0673,28.910238 -0.0673,28.91023 14.222518,-0.0788 c 9.60718,-0.0532 14.56597,-0.17649 15.28086,-0.37989 z m -21.665628,-6.38063 c -0.0845,-0.13664 -0.15967,-9.99503 -0.16714,-21.90753 -0.0127,-20.249838 0.0162,-21.680888 0.4449,-21.994328 0.65025,-0.47548 17.530108,-0.19431 19.800368,0.32981 0.87312,0.20157 2.09001,0.44256 2.70419,0.53552 0.61418,0.093 1.40819,0.39833 1.76447,0.67858 0.35629,0.28025 1.01463,0.58292 1.463,0.67259 0.44836,0.0897 0.81521,0.26722 0.81521,0.39455 0,0.12733 0.17009,0.23151 0.37797,0.23151 0.20789,0 0.54086,0.16289 0.73995,0.36197 0.19908,0.199083 0.6116,0.441203 0.91671,0.538043 0.58092,0.18438 4.90603,4.44576 5.07341,4.99866 0.0531,0.17547 0.23733,0.4381 0.40937,0.58362 0.41063,0.34734 2.00759,3.68911 2.00759,4.20105 0,0.21886 0.103,0.46159 0.22889,0.5394 0.12589,0.0778 0.38358,0.8885 0.57264,1.80155 0.18906,0.91305 0.38216,1.83868 0.42911,2.05696 0.22554,1.04866 0.0993,7.959175 -0.15405,8.432555 -0.15557,0.29068 -0.28261,0.86375 -0.28231,1.2735 7.9e-4,1.22633 -2.02839,5.64455 -3.48201,7.5812 -1.46122,1.94679 -3.83743,4.40859 -4.25531,4.40859 -0.14114,0 -0.61036,0.29765 -1.04272,0.66146 -0.43235,0.3638 -0.94563,0.66145 -1.14062,0.66145 -0.19499,0 -0.39421,0.0946 -0.44272,0.2103 -0.14063,0.33531 -2.30342,1.3772 -2.85885,1.3772 -0.27797,0 -0.57899,0.11907 -0.66892,0.26459 -0.0899,0.14552 -0.54673,0.26458 -1.01508,0.26458 -0.46836,0 -1.11296,0.1831 -1.43246,0.40688 -0.4888,0.34238 -2.17198,0.42887 -10.61648,0.54554 -6.13081,0.0847 -10.095308,0.042 -10.189108,-0.1098 z M 75.595232,64.166672 c 1.37505,-0.61998 2.226,-1.32525 2.69896,-2.23689 0.42893,-0.82676 0.36352,-3.78672 -0.10682,-4.83342 -0.42117,-0.9373 -1.76543,-2.05622 -2.41181,-2.00753 -0.26901,0.0203 -0.48912,-0.0644 -0.48912,-0.18804 0,-0.12369 -0.47171,-0.30458 -1.04824,-0.40198 -1.55909,-0.26341 -4.19568,1.08654 -4.83874,2.47745 -0.57938,1.25319 -0.61542,3.99928 -0.0664,5.06093 0.74749,1.44548 2.58102,2.47152 4.6747,2.61595 0.2426,0.0168 0.95697,-0.20218 1.5875,-0.48647 z"
       id="path8428"
       inkscape:connector-curvature="0" />
  </g>
</svg>
