<?xml version="1.0" encoding="UTF-8" standalone="no"?>
<!-- Created with Inkscape (http://www.inkscape.org/) -->

<svg
   xmlns:dc="http://purl.org/dc/elements/1.1/"
   xmlns:cc="http://creativecommons.org/ns#"
   xmlns:rdf="http://www.w3.org/1999/02/22-rdf-syntax-ns#"
   xmlns:svg="http://www.w3.org/2000/svg"
   xmlns="http://www.w3.org/2000/svg"
   xmlns:sodipodi="http://sodipodi.sourceforge.net/DTD/sodipodi-0.dtd"
   xmlns:inkscape="http://www.inkscape.org/namespaces/inkscape"
   version="1.1"
   id="svg2"
   xml:space="preserve"
   width="394.487"
   height="184.88831"
   viewBox="0 0 394.48699 184.8883"
   sodipodi:docname="jhs_logo.pdf"
   inkscape:version="0.92.1 r15371"><metadata
     id="metadata8"><rdf:RDF><cc:Work
         rdf:about=""><dc:format>image/svg+xml</dc:format><dc:type
           rdf:resource="http://purl.org/dc/dcmitype/StillImage" /><dc:title></dc:title></cc:Work></rdf:RDF></metadata><defs
     id="defs6" /><sodipodi:namedview
     pagecolor="#ffffff"
     bordercolor="#666666"
     borderopacity="1"
     objecttolerance="10"
     gridtolerance="10"
     guidetolerance="10"
     inkscape:pageopacity="0"
     inkscape:pageshadow="2"
     inkscape:window-width="1920"
     inkscape:window-height="1136"
     id="namedview4"
     showgrid="false"
     inkscape:zoom="1.406912"
     inkscape:cx="56.110206"
     inkscape:cy="117.50143"
     inkscape:window-x="0"
     inkscape:window-y="27"
     inkscape:window-maximized="1"
     inkscape:current-layer="g10" /><g
     id="g10"
     inkscape:groupmode="layer"
     inkscape:label="jhs_logo"
     transform="matrix(1.3333333,0,0,-1.3333333,10.525049,177.87248)"><g
       id="g8445"
       transform="translate(-1.6937191,0.29175092)"><g
         id="g12"><path
           inkscape:connector-curvature="0"
           id="path14"
           style="fill:#4e1658;fill-opacity:1;fill-rule:nonzero;stroke:none"
           d="M 0,127.559 H 127.559 V 0 H 0 Z" /><path
           inkscape:connector-curvature="0"
           id="path16"
           style="fill:#aecb12;fill-opacity:1;fill-rule:nonzero;stroke:none"
           d="M 150.234,25.512 H 274.961 V 0 H 150.234 Z" /><path
           inkscape:connector-curvature="0"
           id="path18"
           style="fill:#4e1658;fill-opacity:1;fill-rule:nonzero;stroke:none"
           d="m 135.695,54.379 c 6.2,-0.332 10.782,4.528 10.782,4.528 -2.481,-0.219 -4.961,3.343 -4.961,3.343 8.449,1.668 10.675,9.231 10.675,9.231 -3.265,-1.555 -4.964,0.09 -4.964,0.09 6.261,2.472 7.918,8.019 12.089,13.609 4.18,5.598 10.602,3.336 15.825,1.332 1.914,-0.738 2.371,-1.152 4.609,-1.699 6.535,7.199 11.152,8.734 21.098,8.238 2.422,-0.121 4.066,-0.059 4.066,-0.059 0.883,0.079 1.156,1.446 1.297,2.575 0.035,0.304 0.051,0.605 0.047,0.906 -0.442,0.473 -1.32,1.105 -3.043,1.66 -1.465,0.469 -2.844,1.965 -2.789,4.274 0.039,1.843 0.508,4.777 0.945,6.421 0.039,0.258 0.09,0.52 0.168,0.786 0.309,1.066 1.445,1.984 1.578,2.562 0.168,0.742 0.195,1.109 -0.168,1.316 -0.363,0.208 -0.301,0.04 -1.051,0.083 -0.746,0.039 -1.402,0.542 -0.921,0.738 0.484,0.191 0.734,0.398 0.941,0.73 0.148,0.242 -0.375,-0.023 -1.32,0.117 -1.68,0.254 -2.621,1.399 -2.235,1.434 0.387,0.031 1.254,-0.148 1.903,0.387 0.652,0.535 0.558,0.5 -0.375,0.761 -0.657,0.184 -1.27,0.559 -1.512,0.946 -0.102,0.16 -0.289,0.722 0.488,0.652 1.238,-0.105 2.141,0.625 2.977,1.485 0.828,0.863 2.043,1.882 4.293,1.359 2.035,-0.406 2.363,-1.621 2.238,-1.793 0.203,-0.242 0.348,-0.582 0.563,-1.098 0.054,-0.16 0.089,-0.207 0.089,-0.488 0.016,-0.098 -0.058,-0.34 0.09,-0.574 0.352,-0.418 0.617,-0.645 0.778,-0.762 0.242,-0.184 0.281,-0.277 0.3,-0.375 0.032,-0.355 -0.281,-0.316 -0.379,-0.621 -0.015,-0.141 -0.019,-0.328 0.149,-0.43 0.101,-0.047 -0.055,-0.371 -0.043,-0.402 0.012,-0.043 0.148,-0.156 0.019,-0.352 -0.078,-0.129 -0.187,-0.156 -0.156,-0.3 0.031,-0.11 0.129,-0.309 0.188,-0.422 0.3,-0.594 -0.399,-1.024 -0.953,-1.11 -0.7,-0.047 -1.094,-0.347 -1.305,-0.675 0.457,-0.149 1.015,-0.282 1.129,-0.36 0.152,-0.101 -0.164,-0.652 0.109,-0.855 0.266,-0.203 1.965,-0.18 2.813,-1.145 2.812,-3.199 1.3,-6.543 3.957,-7.644 1.062,-0.438 2.691,-1.055 3.746,-1.153 0.226,-0.023 0.664,0.028 0.664,0.028 0,-0.016 -0.09,0.089 -0.203,0.246 -0.625,0.461 -0.754,1.265 -0.754,1.265 2.422,-1.226 4.633,0.278 4.953,0.965 0.312,0.688 0.172,1.367 -1.953,1.649 -2.871,0.382 -3.496,2.988 -3.496,2.988 0,0 0.914,-0.652 3.336,-0.184 2.468,0.481 3.859,3.149 4.3,4.164 0.106,0.239 0.164,0.395 0.164,0.395 -2.406,-1.094 -5.269,1.363 -5.269,1.363 2.141,0 3.594,1.035 4.324,1.766 0.727,0.73 1.145,1.043 1.875,1.379 0.731,0.343 0.684,1.265 0.684,1.265 -1.449,-0.238 -4.641,1.243 -4.641,1.243 1.164,0.078 3.496,0.16 4.652,0.457 -0.078,0.046 1.301,0.621 1.918,0.664 1.215,0.507 2.247,1.086 2.743,1.402 0.527,0.34 1.507,0.383 2.425,0.32 0.957,0.645 2.594,1.219 3.356,0.938 0.848,-0.313 8.805,2.472 10.086,2.871 1.285,0.394 1.191,1.223 2.972,0.394 1.79,-0.832 1.743,-2.398 1.743,-2.398 0,0 0.918,-2.301 -0.508,-3.184 -0.594,-0.359 -2.906,-0.839 -3.301,-1.25 -0.402,-0.41 -2.477,-1.625 -3.187,-2.734 -0.707,-1.109 -1.043,-3.324 -4.965,-3.863 0,0 0,-0.02 -0.008,-0.028 2.902,-5.078 7.074,-16.531 7.769,-19.175 0.067,-0.239 0.465,-1.079 0.997,-1.735 0.734,-0.898 1.933,-2.539 2.152,-5.828 0,0 1.004,-7.887 2.144,-8.617 1.786,-1.145 6.489,-4.25 7.747,-4.566 0.761,-0.188 1.73,-0.618 2.566,-1.59 2.492,-2.907 7.312,-8.266 11.094,-10.782 1.937,-1.285 2.05,-1.484 3.425,-2.871 1.59,-1.597 3.481,-2.632 4.188,-5.629 0.144,-0.625 -3.523,-1.289 -5.906,0.149 -0.641,0.39 0.133,1.285 0.113,2.187 0,0 0.102,1.926 -1.965,1.883 -2.57,-0.058 -0.851,1.781 -7.488,6.305 -1.906,1.297 -4.527,3.562 -6.567,5.058 -2.371,0.473 -4.628,1.02 -6.039,1.442 -4.312,1.285 -4.086,1.168 -6.418,1.82 0,0 1.602,-7.64 2.731,-9.656 0.348,-0.613 1.336,-2.535 -0.613,-4.066 l -3.016,-3.012 c -0.758,-0.86 -2.391,-2.625 -4.168,-4.731 0,0 -1.418,-1.996 -5.187,-4.39 0,0 -3.083,-2.203 -4.903,-1.938 -1.18,0.172 0.676,5.43 1.344,5.774 0.363,0.187 1.344,-0.192 1.887,-0.348 0.226,-0.066 0.82,-0.309 1.429,0.059 0.696,0.414 0.34,1.203 1.075,2.003 0.41,0.442 2.32,1.325 4.179,3.391 1.699,1.895 3.43,5.102 3.43,5.102 0,0 -5,9.136 -7.231,12.504 0,0 -0.593,0.843 -2.574,0.324 -2.308,-0.582 -3.625,-1.09 -7.769,-1.891 -4.321,-0.836 -7.086,-0.918 -7.086,-0.918 -0.16,-0.316 -1.582,-1.879 -0.551,-3.394 0.949,-1.403 3.008,-2.2 3.008,-2.2 0,0 0.258,-0.664 -1.379,-0.847 -1.637,-0.188 -4.797,0.031 -5.465,1.012 -0.676,0.992 -1.953,0.734 -2.043,1.269 -0.133,0.766 1.137,2.223 2.117,4.109 0,0 -6.98,0.25 -9.84,0.379 -0.222,0.012 -0.429,0.008 -0.628,0 -0.282,-0.023 -1.551,-0.164 -1.954,-0.84 -1.007,-1.73 -3.968,-6.562 -7.543,-9.441 -1.738,-1.398 -4.265,-4.137 -4.3,-4.18 -0.93,-1.125 -1.922,-2.324 -2.965,-3.605 -0.477,-0.731 -0.598,-1.227 -0.266,-1.945 1.485,-3.211 8.024,-14.965 9.117,-15.844 1.098,-0.875 3.317,-3.543 3.317,-5.235 -0.239,-0.625 -4.602,-0.859 -5.649,0.184 -0.515,0.52 0.582,3.492 -1.734,5.168 -2.84,2.055 -0.852,1.688 -4.356,7.352 -1.195,1.937 -4.894,6.109 -6.621,8.664 -0.726,1.082 -0.527,1.031 -0.148,1.922 0.629,1.468 2.23,5.941 2.059,6.113 -0.172,0.172 -1.946,-1.012 -2.418,-1.305 -1.598,-0.988 -4.891,-3.289 -5.379,-3.894 -0.059,-0.079 -0.145,-0.211 -0.239,-0.368 -0.07,-0.117 -0.148,-0.257 -0.238,-0.418 0,-0.007 -0.004,-0.011 -0.012,-0.019 -0.047,-0.086 -0.097,-0.184 -0.148,-0.277 -0.016,-0.028 -0.027,-0.055 -0.043,-0.082 -0.164,-0.321 -0.352,-0.688 -0.551,-1.09 -0.012,-0.024 -0.023,-0.051 -0.035,-0.075 -0.062,-0.121 -0.121,-0.25 -0.187,-0.378 -0.028,-0.067 -0.059,-0.125 -0.09,-0.192 -0.055,-0.117 -0.114,-0.23 -0.168,-0.351 -0.086,-0.184 -0.176,-0.371 -0.266,-0.563 -0.566,-1.207 -1.191,-2.57 -1.789,-3.922 -0.828,-1.855 -0.687,-3.414 -1.57,-5.426 -0.582,-1.113 -0.981,-1.695 -0.95,-2.5 0.153,-3.746 -0.789,-5.343 -1.164,-5.449 -1.066,-0.308 -4.058,2.696 -3.609,4.258 0.176,0.602 2.758,1.172 2.109,2.895 -1.23,3.289 1.618,3.812 2.95,9.082 0.109,0.437 0.257,1.097 0.414,1.836 0.156,0.714 0.316,1.507 0.468,2.265 0.004,0.012 0.004,0.024 0.008,0.031 0.348,1.723 0.645,3.258 0.645,3.258 0.363,2.922 1.144,1.707 2.644,3.207 1.871,1.871 2.539,2.973 4.457,5.438 0.598,0.761 0.426,1.988 -0.961,4.16 -5.168,8.101 -2.597,13.32 -2.597,13.32 -6.793,2.281 -11.578,1.344 -11.578,-4.781 0,-2.371 1.199,-6.426 -1.375,-7.828 -1.887,-1.027 -2.977,-1.52 -2.371,-4.805 1.363,-7.387 -6.594,-11.508 -6.594,-11.508 1.035,2.157 0.285,4.465 0.285,4.465 -1.406,-5.687 -8.762,-7.894 -8.762,-7.894 0.332,1.683 0.367,2.965 0.367,2.965 -4.3,-3.247 -12.453,1.679 -12.453,1.679" /><path
           inkscape:connector-curvature="0"
           id="path20"
           style="fill:#ffffff;fill-opacity:1;fill-rule:nonzero;stroke:none"
           d="M 27.539,72.196 V 88.832 H 25.305 V 81.59 h -9.133 v 7.242 H 13.91 V 72.196 h 2.262 v 7.343 h 9.133 v -7.343 z m 15.387,0 v 2.101 h -8.278 v 5.192 h 6.895 v 2.101 h -6.895 v 5.137 h 8.278 v 2.105 H 32.383 V 72.196 Z m 6.281,6.414 2.848,0.183 4.047,-6.597 h 2.687 l -4.496,6.972 c 2.289,0.746 3.75,2.289 3.75,4.793 0,2.953 -2.102,4.871 -6.121,4.871 H 46.945 V 72.196 h 2.262 z m 0,1.996 v 6.148 h 2.449 c 2.528,0 4.125,-0.929 4.125,-2.898 0,-2.055 -1.648,-3.09 -3.832,-3.168 z m 23.609,-8.41 v 2.101 h -9.371 l 9.399,12.778 v 1.757 H 60.762 v -2.105 h 9.261 L 60.602,73.899 v -1.703 h 12.214" /><path
           inkscape:connector-curvature="0"
           id="path22"
           style="fill:#ffffff;fill-opacity:1;fill-rule:nonzero;stroke:none"
           d="m 64.586,98.344 c -5.027,0 -8.402,3.516 -8.402,8.75 0,5.199 3.457,8.828 8.402,8.828 1.898,0 3.937,-0.535 5.309,-1.394 l -0.692,-2.137 -0.031,-0.082 -0.074,0.051 c -1.5,0.976 -2.852,1.394 -4.512,1.394 -3.629,0 -5.973,-2.57 -5.973,-6.554 0,-4.067 2.364,-6.688 6.024,-6.688 1.621,0 3.363,0.598 4.668,1.605 l 0.097,0.075 0.016,-0.117 0.375,-2.262 c -1.426,-0.949 -3.359,-1.469 -5.207,-1.469 m -35.426,0 c -5.039,0 -8.43,3.516 -8.43,8.75 0,5.117 3.547,8.828 8.43,8.828 5.043,0 8.43,-3.504 8.43,-8.722 0,-5.133 -3.547,-8.856 -8.43,-8.856 m -0.055,15.41 c -3.554,0 -5.941,-2.633 -5.941,-6.554 0,-4 2.43,-6.688 6.051,-6.688 3.515,0 5.973,2.707 5.973,6.582 0,3.984 -2.446,6.66 -6.083,6.66 m 87.219,-15.012 h -2.429 l -0.004,0.075 -0.157,13.453 -4.922,-13.238 -2.328,-0.047 -5.019,13.316 -0.18,-13.484 -0.004,-0.075 H 98.93 v 0.075 l 0.562,16.636 v 0.071 h 3.074 l 5.114,-13.551 5.015,13.504 3.024,0.047 h 0.07 v -0.071 l 0.531,-16.636 z m -21.722,0 h -2.379 v 16.782 h 2.379 z m -7.137,0 H 85.09 v 7.348 h -8.988 v -7.348 h -2.407 v 16.782 h 2.407 v -7.242 h 8.988 v 7.242 h 2.375 z m -32.969,0 h -2.422 l -1.636,4.415 -7.149,-0.047 -1.5,-4.321 -2.414,-0.047 h -0.102 l 0.039,0.098 6.258,16.637 2.645,0.047 6.246,-16.684 z m -10.355,6.559 h 5.515 l -2.746,7.598 z" /><path
           inkscape:connector-curvature="0"
           id="path24"
           style="fill:#ffffff;fill-opacity:1;fill-rule:nonzero;stroke:none"
           d="m 9.828,93.653 -0.012,2.422 c 3.075,0.121 4.629,1.921 4.629,5.363 v 14.125 h 2.391 v -14.75 c 0,-4.477 -2.551,-7.086 -7.008,-7.16" /><path
           inkscape:connector-curvature="0"
           id="path26"
           style="fill:#aecb12;fill-opacity:1;fill-rule:nonzero;stroke:none"
           d="m 111.195,9.551 c -4.672,0 -7.808,3.27 -7.808,8.133 0,4.828 3.211,8.203 7.808,8.203 1.832,0 3.914,-0.543 5.18,-1.348 l -0.664,-2.011 -0.027,-0.082 -0.079,0.046 c -1.363,0.875 -2.972,1.375 -4.41,1.375 -3.363,0 -5.539,-2.39 -5.539,-6.085 0,-3.774 2.192,-6.207 5.59,-6.207 1.418,0 2.594,0.425 3.332,0.785 l -0.043,3.523 h -4.324 v 2.094 h 6.492 V 11.11 c -1.512,-0.969 -3.66,-1.559 -5.508,-1.559 m -32.902,0 c -3.82,0 -6.102,2.313 -6.102,6.18 v 9.785 h 2.219 v -9.465 c 0,-2.863 1.387,-4.379 4.008,-4.379 2.457,0 3.809,1.504 3.809,4.231 v 9.613 h 2.222 v -9.563 c 0,-4.125 -2.187,-6.402 -6.156,-6.402 m -62.238,0 c -1.832,0 -3.723,0.535 -5.2,1.473 l 0.661,1.988 0.031,0.082 0.074,-0.047 c 1.539,-1.015 2.926,-1.472 4.488,-1.472 1.934,0 3.289,1.039 3.289,2.523 0,1.535 -1.179,2.117 -3.656,2.773 -2.426,0.657 -4.676,1.668 -4.676,4.594 0,2.645 2.106,4.422 5.239,4.422 1.808,0 3.41,-0.449 4.906,-1.371 l -0.711,-1.918 -0.035,-0.082 -0.07,0.051 c -1.192,0.797 -2.715,1.273 -4.063,1.273 -1.953,0 -3.066,-0.808 -3.066,-2.226 0,-1.45 1.14,-2 3.699,-2.7 2.14,-0.57 4.601,-1.605 4.601,-4.664 0,-2.765 -2.265,-4.699 -5.511,-4.699 m 84.386,0.227 H 98.094 L 89.887,22.215 V 9.922 h -2.196 v 15.594 h 2.395 l 8.16,-12.293 v 12.293 h 2.195 z M 64.527,9.922 h -2.218 v 13.473 h -5.418 v 2.121 h 13.05 v -2.121 h -5.414 z m -17.324,0 h -2.25 v 15.594 h 9.684 V 23.395 H 47.203 V 18.52 h 6.149 v -2.094 h -6.149 z m -6.086,0 h -2.219 v 15.594 h 2.219 z m -4.746,13.543 v -0.07 h -5.41 V 9.922 h -2.219 v 13.473 h -5.414 v 2.121 h 13.043 v -2.051" /></g></g></g></svg>