<?xml version="1.0" encoding="UTF-8" standalone="no"?>
<!-- Created with Inkscape (http://www.inkscape.org/) -->

<svg
   xmlns:dc="http://purl.org/dc/elements/1.1/"
   xmlns:cc="http://creativecommons.org/ns#"
   xmlns:rdf="http://www.w3.org/1999/02/22-rdf-syntax-ns#"
   xmlns:svg="http://www.w3.org/2000/svg"
   xmlns="http://www.w3.org/2000/svg"
   xmlns:xlink="http://www.w3.org/1999/xlink"
   xmlns:sodipodi="http://sodipodi.sourceforge.net/DTD/sodipodi-0.dtd"
   xmlns:inkscape="http://www.inkscape.org/namespaces/inkscape"
   width="234.09833mm"
   height="179.66975mm"
   viewBox="0 0 234.09833 179.66975"
   version="1.1"
   id="svg8"
   inkscape:version="0.92.1 r15371"
   sodipodi:docname="teaching_model.svg"
   inkscape:export-filename="/home/hoelzer/git/lab/assets/teaching/teaching_model.png"
   inkscape:export-xdpi="599.97998"
   inkscape:export-ydpi="599.97998">
  <defs
     id="defs2">
    <linearGradient
       inkscape:collect="always"
       id="linearGradient8842">
      <stop
         style="stop-color:#666666;stop-opacity:1;"
         offset="0"
         id="stop8838" />
      <stop
         style="stop-color:#666666;stop-opacity:0;"
         offset="1"
         id="stop8840" />
    </linearGradient>
    <marker
       inkscape:stockid="Arrow1Mstart"
       orient="auto"
       refY="0"
       refX="0"
       id="Arrow1Mstart"
       style="overflow:visible"
       inkscape:isstock="true">
      <path
         id="path8457"
         d="M 0,0 5,-5 -12.5,0 5,5 Z"
         style="fill:#000000;fill-opacity:1;fill-rule:evenodd;stroke:#000000;stroke-width:1.00000003pt;stroke-opacity:1"
         transform="matrix(0.4,0,0,0.4,4,0)"
         inkscape:connector-curvature="0" />
    </marker>
    <marker
       inkscape:stockid="Arrow1Lstart"
       orient="auto"
       refY="0"
       refX="0"
       id="Arrow1Lstart"
       style="overflow:visible"
       inkscape:isstock="true">
      <path
         id="path8451"
         d="M 0,0 5,-5 -12.5,0 5,5 Z"
         style="fill:#000000;fill-opacity:1;fill-rule:evenodd;stroke:#000000;stroke-width:1.00000003pt;stroke-opacity:1"
         transform="matrix(0.8,0,0,0.8,10,0)"
         inkscape:connector-curvature="0" />
    </marker>
    <radialGradient
       inkscape:collect="always"
       xlink:href="#linearGradient8842"
       id="radialGradient8846"
       cx="101.12043"
       cy="86.93911"
       fx="101.12043"
       fy="86.93911"
       r="91.557632"
       gradientTransform="matrix(1.6068585,-0.0082506,0.00778755,1.5166793,-62.042832,-44.085334)"
       gradientUnits="userSpaceOnUse" />
  </defs>
  <sodipodi:namedview
     id="base"
     pagecolor="#ffffff"
     bordercolor="#666666"
     borderopacity="1.0"
     inkscape:pageopacity="0.0"
     inkscape:pageshadow="2"
     inkscape:zoom="0.7"
     inkscape:cx="225.10552"
     inkscape:cy="203.95008"
     inkscape:document-units="mm"
     inkscape:current-layer="layer1"
     showgrid="false"
     inkscape:window-width="1920"
     inkscape:window-height="1136"
     inkscape:window-x="0"
     inkscape:window-y="27"
     inkscape:window-maximized="1"
     fit-margin-top="0"
     fit-margin-left="0"
     fit-margin-right="0"
     fit-margin-bottom="0" />
  <metadata
     id="metadata5">
    <rdf:RDF>
      <cc:Work
         rdf:about="">
        <dc:format>image/svg+xml</dc:format>
        <dc:type
           rdf:resource="http://purl.org/dc/dcmitype/StillImage" />
        <dc:title></dc:title>
      </cc:Work>
    </rdf:RDF>
  </metadata>
  <g
     inkscape:label="Layer 1"
     inkscape:groupmode="layer"
     id="layer1"
     transform="translate(16.194532,-2.2445235)">
    <g
       id="g8563"
       transform="translate(-0.45046357,-1.1081507)">
      <flowRoot
         inkscape:export-ydpi="599.98425"
         inkscape:export-xdpi="599.98425"
         transform="matrix(0.97639103,0,0,0.97639103,-75.26372,-238.75875)"
         style="font-style:normal;font-variant:normal;font-weight:bold;font-stretch:normal;font-size:18.66666603px;line-height:1000%;font-family:Arial;-inkscape-font-specification:'Arial Bold';text-align:start;letter-spacing:0px;word-spacing:0px;text-anchor:start;fill:#000000;fill-opacity:1;stroke:none;stroke-width:0.27098089px;stroke-linecap:butt;stroke-linejoin:miter;stroke-opacity:1"
         id="flowRoot8417"
         xml:space="preserve"><flowRegion
           style="font-style:normal;font-variant:normal;font-weight:bold;font-stretch:normal;font-family:Arial;-inkscape-font-specification:'Arial Bold';stroke-width:0.27098089px"
           id="flowRegion8419"><rect
             style="font-style:normal;font-variant:normal;font-weight:bold;font-stretch:normal;font-family:Arial;-inkscape-font-specification:'Arial Bold';stroke-width:0.27098089px"
             y="169.66254"
             x="165.71428"
             height="295.71429"
             width="642.85712"
             id="rect8421" /></flowRegion><flowPara
           style="font-style:normal;font-variant:normal;font-weight:bold;font-stretch:normal;font-family:Arial;-inkscape-font-specification:'Arial Bold';stroke-width:0.27098089px"
           id="flowPara8423">Act</flowPara></flowRoot>      <flowRoot
         inkscape:export-ydpi="599.98425"
         inkscape:export-xdpi="599.98425"
         xml:space="preserve"
         id="flowRoot8431"
         style="font-style:normal;font-variant:normal;font-weight:bold;font-stretch:normal;font-size:18.66666603px;line-height:1000%;font-family:Arial;-inkscape-font-specification:'Arial Bold';text-align:start;letter-spacing:0px;word-spacing:0px;text-anchor:start;fill:#000000;fill-opacity:1;stroke:none;stroke-width:0.27098089px;stroke-linecap:butt;stroke-linejoin:miter;stroke-opacity:1"
         transform="matrix(0.97639103,0,0,0.97639103,-12.787073,-173.10799)"><flowRegion
           style="font-style:normal;font-variant:normal;font-weight:bold;font-stretch:normal;font-family:Arial;-inkscape-font-specification:'Arial Bold';stroke-width:0.27098089px"
           id="flowRegion8427"><rect
             style="font-style:normal;font-variant:normal;font-weight:bold;font-stretch:normal;font-family:Arial;-inkscape-font-specification:'Arial Bold';stroke-width:0.27098089px"
             id="rect8425"
             width="642.85712"
             height="295.71429"
             x="165.71428"
             y="169.66254" /></flowRegion><flowPara
           style="font-style:normal;font-variant:normal;font-weight:bold;font-stretch:normal;font-family:Arial;-inkscape-font-specification:'Arial Bold';stroke-width:0.27098089px"
           id="flowPara8429">Reflect</flowPara></flowRoot>      <flowRoot
         inkscape:export-ydpi="599.98425"
         inkscape:export-xdpi="599.98425"
         transform="matrix(0.97639103,0,0,0.97639103,-90.384916,-98.154649)"
         style="font-style:normal;font-variant:normal;font-weight:bold;font-stretch:normal;font-size:18.66666603px;line-height:1000%;font-family:Arial;-inkscape-font-specification:'Arial Bold';text-align:start;letter-spacing:0px;word-spacing:0px;text-anchor:start;fill:#000000;fill-opacity:1;stroke:none;stroke-width:0.27098089px;stroke-linecap:butt;stroke-linejoin:miter;stroke-opacity:1"
         id="flowRoot8439"
         xml:space="preserve"><flowRegion
           style="font-style:normal;font-variant:normal;font-weight:bold;font-stretch:normal;font-family:Arial;-inkscape-font-specification:'Arial Bold';stroke-width:0.27098089px"
           id="flowRegion8435"><rect
             style="font-style:normal;font-variant:normal;font-weight:bold;font-stretch:normal;font-family:Arial;-inkscape-font-specification:'Arial Bold';stroke-width:0.27098089px"
             y="169.66254"
             x="165.71428"
             height="295.71429"
             width="642.85712"
             id="rect8433" /></flowRegion><flowPara
           style="font-style:normal;font-variant:normal;font-weight:bold;font-stretch:normal;font-family:Arial;-inkscape-font-specification:'Arial Bold';stroke-width:0.27098089px"
           id="flowPara8437">Revise</flowPara></flowRoot>      <flowRoot
         inkscape:export-ydpi="599.98425"
         inkscape:export-xdpi="599.98425"
         xml:space="preserve"
         id="flowRoot8447"
         style="font-style:normal;font-variant:normal;font-weight:bold;font-stretch:normal;font-size:18.66666603px;line-height:1000%;font-family:Arial;-inkscape-font-specification:'Arial Bold';text-align:start;letter-spacing:0px;word-spacing:0px;text-anchor:start;fill:#000000;fill-opacity:1;stroke:none;stroke-width:0.27098089px;stroke-linecap:butt;stroke-linejoin:miter;stroke-opacity:1"
         transform="matrix(0.97639103,0,0,0.97639103,-165.46894,-175.03026)"><flowRegion
           style="font-style:normal;font-variant:normal;font-weight:bold;font-stretch:normal;font-family:Arial;-inkscape-font-specification:'Arial Bold';stroke-width:0.27098089px"
           id="flowRegion8443"><rect
             style="font-style:normal;font-variant:normal;font-weight:bold;font-stretch:normal;font-family:Arial;-inkscape-font-specification:'Arial Bold';stroke-width:0.27098089px"
             id="rect8441"
             width="642.85712"
             height="295.71429"
             x="165.71428"
             y="169.66254" /></flowRegion><flowPara
           style="font-style:normal;font-variant:normal;font-weight:bold;font-stretch:normal;font-family:Arial;-inkscape-font-specification:'Arial Bold';stroke-width:0.27098089px"
           id="flowPara8445">Apply</flowPara></flowRoot>      <path
         inkscape:export-ydpi="599.98425"
         inkscape:export-xdpi="599.98425"
         sodipodi:nodetypes="cscsscccscccccccscccccsssscsscscscssssscccccscccscccccccsccccccccccccccsccscscssccccscsccccc"
         inkscape:connector-curvature="0"
         id="path8773"
         d="m 148.93207,157.49689 c -3.6744,-3.50236 -6.68073,-6.46729 -6.68073,-6.58874 0,-0.22081 12.71161,-12.90521 13.29296,-13.26451 0.1693,-0.10463 0.4028,-0.13154 0.51889,-0.0598 0.11609,0.0717 0.21107,1.96889 0.21107,4.21588 v 4.08542 l 1.91823,-0.009 c 1.05503,-0.005 2.6326,-0.19151 3.50573,-0.41405 1.46852,-0.37431 2.05203,-0.53512 3.83646,-1.05726 1.60749,-0.47037 5.39446,-2.67352 7.43413,-4.32495 5.89324,-4.77151 9.3982,-11.1454 9.86567,-17.94108 0.0726,-1.05525 0.20545,-2.03752 0.29525,-2.18281 0.26383,-0.4269 9.30344,-0.34858 9.46868,0.082 0.39497,1.02927 -0.7519,7.97821 -1.83297,11.10601 -4.60324,13.3184 -16.66551,22.59104 -31.28949,24.05318 l -3.20169,0.32011 v 4.17996 c 0,3.17077 -0.0798,4.1785 -0.33073,4.17395 -0.1819,-0.003 -3.33706,-2.87157 -7.01146,-6.37393 z m -101.401567,5.01309 c -2.830666,-0.6036 -5.354278,-1.31045 -5.675313,-1.58962 -0.138244,-0.12022 -0.417764,-0.21858 -0.621154,-0.21858 -0.578964,0 -4.779113,-2.10132 -6.535825,-3.26985 -5.677139,-3.77633 -10.275613,-9.01747 -12.916618,-14.72182 -2.31694,-5.00439 -3.240114,-8.48296 -3.58109,-13.49375 l -0.171043,-2.51354 h -4.233334 c -3.040062,0 -4.2333329,-0.0867 -4.2333329,-0.30754 0,-0.16915 0.8334369,-1.18328 1.8520829,-2.25363 8.537242,-8.97055 10.862107,-11.32945 11.165965,-11.32945 0.43692,0 13.566384,13.28733 13.398787,13.55989 -0.06711,0.10914 -2.037559,0.19844 -4.378773,0.19844 h -4.256752 l 0.174014,2.26386 c 0.288872,3.75813 1.800038,8.50089 3.674182,11.53133 2.368516,3.82982 6.259632,7.62186 9.990254,9.73586 2.577899,1.46081 6.763206,2.82817 9.390659,3.068 3.448963,0.3148 3.177886,-0.1191 3.15682,5.05309 l -0.01818,4.46348 -2.495362,0.0389 c -1.372452,0.0214 -3.031146,-0.0754 -3.68599,-0.21503 z M 171.22322,58.392696 c -3.4925,-3.57402 -6.35,-6.69229 -6.35,-6.92949 0,-0.37736 0.52293,-0.44037 4.18478,-0.5042 l 4.18477,-0.073 -0.18042,-2.176 c -0.58803,-7.0919 -3.87502,-13.30918 -9.73494,-18.41343 -3.58382,-3.12167 -9.09618,-5.441 -13.71,-5.7685 -1.33644,-0.0949 -2.45607,-0.30594 -2.61062,-0.49216 -0.1675,-0.20183 -0.24291,-2.02646 -0.19792,-4.78899 l 0.0727,-4.46293 1.32292,-0.0896 c 2.09548,-0.14196 7.4854,0.83451 10.05416,1.82146 0.29104,0.11182 1.06495,0.40162 1.71979,0.644 3.82079,1.4142 9.04743,4.95858 12.18717,8.26458 3.09752,3.26155 4.15417,4.7538 6.32946,8.93874 2.35961,4.53956 3.97174,10.5255 3.9726,14.75052 l 3.6e-4,1.78594 4.03489,0.004 c 2.2192,0.002 4.20694,0.1129 4.41722,0.24593 0.40178,0.25421 0.34373,0.31912 -7.69632,8.60543 -1.83989,1.89624 -3.66618,3.83466 -4.05842,4.30761 -0.39224,0.47294 -0.91094,0.85277 -1.15266,0.84407 -0.24173,-0.009 -3.297,-2.94003 -6.7895,-6.51406 z M 15.692308,54.162866 c -0.265102,-0.2651 -0.212177,-2.70547 0.09707,-4.47584 0.582446,-3.33441 1.128787,-5.70239 1.582084,-6.85714 0.11425,-0.29105 0.357537,-0.94589 0.540642,-1.45521 0.752694,-2.0937 2.997306,-6.09626 4.627184,-8.25114 5.018987,-6.63567 12.31459,-11.4093 20.757887,-13.58223 1.403342,-0.36116 6.815296,-1.14417 8.135938,-1.17713 0.249946,-0.006 0.330729,-1.00613 0.330729,-4.09368 0,-2.54695 0.10378,-4.14956 0.275587,-4.25575 0.287954,-0.1779597 3.472934,2.70954 10.175455,9.22508 l 3.968753,3.85803 -2.91042,2.84353 c -8.109125,7.92276 -10.726465,10.40621 -10.967252,10.40621 -0.161486,0 -0.292415,-1.61918 -0.336968,-4.16719 l -0.07286,-4.16719 -1.719791,0.0224 c -2.859011,0.0372 -5.758556,0.70445 -8.662221,1.99331 -0.616879,0.27382 -1.184577,0.49785 -1.261552,0.49785 -0.36912,0 -3.72351,2.2179 -5.386412,3.56147 -1.648986,1.33232 -5.5919,5.61078 -5.5919,6.06778 0,0.0944 -0.29006,0.61561 -0.644575,1.1582 -1.550406,2.37287 -3.318867,8.18642 -3.32232,10.92161 -0.0011,0.80764 -0.14473,1.61132 -0.319355,1.78594 -0.342397,0.3424 -8.963536,0.47327 -9.295694,0.14111 z"
         style="fill:url(#radialGradient8846);fill-opacity:1;stroke-width:1" />
      <g
         inkscape:export-ydpi="599.98425"
         inkscape:export-xdpi="599.98425"
         transform="translate(5.6740203,-7.0835289)"
         id="g8874">
        <flowRoot
           xml:space="preserve"
           id="flowRoot8800"
           style="font-style:normal;font-variant:normal;font-weight:normal;font-stretch:normal;font-size:18.66666603px;line-height:1000%;font-family:Arial;-inkscape-font-specification:Arial;text-align:start;letter-spacing:0px;word-spacing:0px;text-anchor:start;fill:#00006a;fill-opacity:1;stroke:none;stroke-width:0.61507231px;stroke-linecap:butt;stroke-linejoin:miter;stroke-opacity:1"
           transform="matrix(0.4301662,0,0,0.4301662,69.756016,-9.383818)"><flowRegion
             style="fill:#00006a;fill-opacity:1;stroke-width:0.61507231px"
             id="flowRegion8796"><rect
               style="fill:#00006a;fill-opacity:1;stroke-width:0.61507231px"
               id="rect8794"
               width="642.85712"
               height="295.71429"
               x="165.71428"
               y="169.66254" /></flowRegion><flowPara
             style="fill:#00006a;fill-opacity:1;stroke-width:0.61507231px"
             id="flowPara8798">Assess behavior &amp; </flowPara></flowRoot>        <flowRoot
           transform="matrix(0.4301662,0,0,0.4301662,77.111409,-2.0132823)"
           style="font-style:normal;font-variant:normal;font-weight:normal;font-stretch:normal;font-size:18.66666603px;line-height:1000%;font-family:Arial;-inkscape-font-specification:Arial;text-align:start;letter-spacing:0px;word-spacing:0px;text-anchor:start;fill:#00006a;fill-opacity:1;stroke:none;stroke-width:0.61507231px;stroke-linecap:butt;stroke-linejoin:miter;stroke-opacity:1"
           id="flowRoot8812"
           xml:space="preserve"><flowRegion
             id="flowRegion8808"
             style="fill:#00006a;fill-opacity:1;stroke-width:0.61507231px"><rect
               y="169.66254"
               x="165.71428"
               height="295.71429"
               width="642.85712"
               id="rect8806"
               style="fill:#00006a;fill-opacity:1;stroke-width:0.61507231px" /></flowRegion><flowPara
             id="flowPara8810"
             style="fill:#00006a;fill-opacity:1;stroke-width:0.61507231px">consequences</flowPara></flowRoot>      </g>
      <flowRoot
         inkscape:export-ydpi="599.98425"
         inkscape:export-xdpi="599.98425"
         xml:space="preserve"
         id="flowRoot8820"
         style="font-style:normal;font-variant:normal;font-weight:normal;font-stretch:normal;font-size:18.66666603px;line-height:1000%;font-family:Arial;-inkscape-font-specification:Arial;text-align:start;letter-spacing:0px;word-spacing:0px;text-anchor:start;fill:#00006a;fill-opacity:1;stroke:none;stroke-width:0.61507231px;stroke-linecap:butt;stroke-linejoin:miter;stroke-opacity:1"
         transform="matrix(0.4301662,0,0,0.4301662,1.2176908,-82.862392)"><flowRegion
           style="fill:#00006a;fill-opacity:1;stroke-width:0.61507231px"
           id="flowRegion8816"><rect
             style="fill:#00006a;fill-opacity:1;stroke-width:0.61507231px"
             id="rect8814"
             width="642.85712"
             height="295.71429"
             x="165.71428"
             y="169.66254" /></flowRegion><flowPara
           style="fill:#00006a;fill-opacity:1;stroke-width:0.61507231px"
           id="flowPara8818">Theory of action</flowPara></flowRoot>      <flowRoot
         inkscape:export-ydpi="599.98425"
         inkscape:export-xdpi="599.98425"
         transform="matrix(0.4301662,0,0,0.4301662,-8.0706515,59.33224)"
         style="font-style:normal;font-variant:normal;font-weight:normal;font-stretch:normal;font-size:18.66666603px;line-height:1000%;font-family:Arial;-inkscape-font-specification:Arial;text-align:start;letter-spacing:0px;word-spacing:0px;text-anchor:start;fill:#00006a;fill-opacity:1;stroke:none;stroke-width:0.61507231px;stroke-linecap:butt;stroke-linejoin:miter;stroke-opacity:1"
         id="flowRoot8828"
         xml:space="preserve"><flowRegion
           id="flowRegion8824"
           style="fill:#00006a;fill-opacity:1;stroke-width:0.61507231px"><rect
             y="169.66254"
             x="165.71428"
             height="295.71429"
             width="642.85712"
             id="rect8822"
             style="fill:#00006a;fill-opacity:1;stroke-width:0.61507231px" /></flowRegion><flowPara
           id="flowPara8826"
           style="fill:#00006a;fill-opacity:1;stroke-width:0.61507231px">Conceptualize theory</flowPara></flowRoot>      <g
         inkscape:export-ydpi="599.98425"
         inkscape:export-xdpi="599.98425"
         transform="translate(30.474164,-5.2916665)"
         id="g8864">
        <flowRoot
           transform="matrix(0.4301662,0,0,0.4301662,-113.1563,-11.2737)"
           style="font-style:normal;font-variant:normal;font-weight:normal;font-stretch:normal;font-size:18.66666603px;line-height:1000%;font-family:Arial;-inkscape-font-specification:Arial;text-align:start;letter-spacing:0px;word-spacing:0px;text-anchor:start;fill:#00006a;fill-opacity:1;stroke:none;stroke-width:0.61507231px;stroke-linecap:butt;stroke-linejoin:miter;stroke-opacity:1"
           id="flowRoot8836"
           xml:space="preserve"><flowRegion
             id="flowRegion8832"
             style="fill:#00006a;fill-opacity:1;stroke-width:0.61507231px"><rect
               y="169.66254"
               x="165.71428"
               height="295.71429"
               width="642.85712"
               id="rect8830"
               style="fill:#00006a;fill-opacity:1;stroke-width:0.61507231px" /></flowRegion><flowPara
             id="flowPara8834"
             style="fill:#00006a;fill-opacity:1;stroke-width:0.61507231px">Implement revised</flowPara></flowRoot>        <flowRoot
           xml:space="preserve"
           id="flowRoot8854"
           style="font-style:normal;font-variant:normal;font-weight:normal;font-stretch:normal;font-size:18.66666603px;line-height:1000%;font-family:Arial;-inkscape-font-specification:Arial;text-align:start;letter-spacing:0px;word-spacing:0px;text-anchor:start;fill:#00006a;fill-opacity:1;stroke:none;stroke-width:0.61507231px;stroke-linecap:butt;stroke-linejoin:miter;stroke-opacity:1"
           transform="matrix(0.4301662,0,0,0.4301662,-91.450829,-1.8242952)"><flowRegion
             style="fill:#00006a;fill-opacity:1;stroke-width:0.61507231px"
             id="flowRegion8850"><rect
               style="fill:#00006a;fill-opacity:1;stroke-width:0.61507231px"
               id="rect8848"
               width="642.85712"
               height="295.71429"
               x="165.71428"
               y="169.66254" /></flowRegion><flowPara
             style="fill:#00006a;fill-opacity:1;stroke-width:0.61507231px"
             id="flowPara8852">theory</flowPara></flowRoot>      </g>
      <g
         inkscape:export-ydpi="599.98425"
         inkscape:export-xdpi="599.98425"
         style="stroke-width:0.86649501"
         transform="matrix(0.95174038,0,0,0.95174038,8.0307937,57.022168)"
         id="g462020">
        <path
           inkscape:connector-curvature="0"
           id="path120850"
           style="fill:#ffcc00;fill-opacity:1;fill-rule:nonzero;stroke:none;stroke-width:0.30568019;stroke-linecap:round;stroke-linejoin:round;stroke-miterlimit:10"
           d="m 135.67422,18.369994 c -0.34149,0.483659 -0.67522,0.963084 -1.01812,1.437217 -0.1531,0.21202 -0.44803,0.417336 -0.38594,0.655814 0.0536,0.212372 0.4064,0.09913 0.62301,0.136525 0.61172,0.104775 1.22908,0.176389 1.91805,0.271286 -0.18062,0.171097 -0.2921,0.315736 -0.43674,0.405342 -0.496,0.310091 -0.83784,0.792339 -1.29963,1.137002 -0.27129,0.202495 -0.16263,0.295981 0.0635,0.382764 0.71649,0.275873 1.43439,0.545748 2.19922,0.833967 -0.64206,0.336197 -1.26083,0.660047 -1.88102,0.981075 -0.15839,0.08255 -0.42862,0.119944 -0.44097,0.272697 -0.0152,0.180622 0.24271,0.264584 0.39829,0.367947 0.55668,0.367948 1.1176,0.727781 1.70321,1.192036 -0.73731,0.180623 -1.40829,0.343253 -2.07645,0.513998 -0.15875,0.04163 -0.40534,0.01129 -0.44662,0.168275 -0.0346,0.135114 0.16828,0.265994 0.27976,0.388408 0.46284,0.504472 0.92463,1.010356 1.46755,1.604081 h -2.69134 c 0.35701,0.866775 0.8449,1.582208 1.30104,2.428169 -0.54151,-0.117122 -0.98389,-0.213431 -1.42628,-0.310092 -0.30727,-0.06597 -0.61454,-0.126647 -0.91792,-0.203905 -0.23566,-0.06068 -0.28787,0.02081 -0.22578,0.234244 0.0907,0.308681 0.17745,0.617361 0.19403,0.977195 -0.39688,-0.394053 -0.80187,-0.779992 -1.18357,-1.187803 -0.13088,-0.140759 0.0508,-0.233186 0.13758,-0.318559 0.7306,-0.730249 1.34796,-1.544813 1.78188,-2.486024 1.25695,-2.732617 1.22661,-5.458178 -0.19438,-8.106834 -1.08303,-2.017536 -2.74214,-3.425825 -4.91949,-4.190647 -1.41781,-0.498828 -2.88819,-0.657225 -4.35186,-0.385939 -3.15419,0.585611 -5.46665,2.352323 -6.75922,5.297311 -0.93698,2.133248 -0.98531,4.346223 -0.17498,6.560609 0.46425,1.269294 1.17404,2.368902 2.13995,3.306233 0.19579,0.188736 0.18485,0.301625 -0.01,0.491772 -0.35842,0.351367 -0.68086,0.741539 -1.07068,1.073503 -0.0483,-0.3556 0.10054,-0.626886 0.17498,-0.916517 0.10477,-0.409222 0.0896,-0.420158 -0.31009,-0.331964 -0.71367,0.158397 -1.4291,0.308681 -2.22427,0.479425 0.44803,-0.817033 0.86008,-1.569508 1.29011,-2.35338 -0.90699,-0.107597 -1.76001,-0.02081 -2.68852,-0.08149 0.38559,-0.443794 0.72743,-0.839258 1.07315,-1.2319 0.10337,-0.117122 0.21943,-0.223308 0.32668,-0.337608 0.0981,-0.103364 0.23036,-0.195792 0.1725,-0.367947 -0.054,-0.162631 -0.20955,-0.12947 -0.3309,-0.169687 -0.65194,-0.206727 -1.33809,-0.285044 -2.01189,-0.546805 0.23142,-0.30727 0.56374,-0.43427 0.83361,-0.636764 0.33761,-0.252236 0.69039,-0.485069 1.04458,-0.712611 0.22895,-0.14605 0.18203,-0.231422 -0.0289,-0.341489 -0.67099,-0.352778 -1.33668,-0.715433 -2.07786,-1.113719 0.50553,-0.202495 0.9398,-0.45332 1.40405,-0.534459 0.33338,-0.05927 0.57044,-0.253647 0.85302,-0.370769 0.24377,-0.100542 0.0346,-0.249414 -0.0773,-0.345722 -0.48789,-0.427214 -0.97966,-0.849136 -1.46756,-1.277761 -0.0579,-0.05221 -0.16263,-0.09913 -0.13652,-0.195439 0.0318,-0.122767 0.15593,-0.09243 0.24412,-0.103364 0.65299,-0.08431 1.30634,-0.165453 1.95933,-0.244122 0.24412,-0.03034 0.37218,-0.08114 0.16545,-0.351367 -0.37465,-0.486481 -0.7179,-0.996244 -1.07632,-1.495072 -0.0769,-0.107597 -0.21626,-0.238478 -0.14993,-0.341842 0.0688,-0.108655 0.24941,-0.08537 0.39828,-0.06738 0.57291,0.0702 1.14759,0.137583 1.72368,0.183091 0.34043,0.02752 0.39158,-0.06174 0.26599,-0.37465 -0.23848,-0.592666 -0.4766,-1.185333 -0.71649,-1.777647 -0.0303,-0.07161 -0.13229,-0.135114 -0.055,-0.220486 0.0688,-0.07585 0.16934,-0.03034 0.23813,0 0.59549,0.268464 1.23472,0.4064 1.84115,0.640644 0.1143,0.04551 0.23565,0.11042 0.34184,0.03316 0.11289,-0.08149 0.0166,-0.203905 0.003,-0.303388 -0.0938,-0.668162 -0.1972,-1.335264 -0.29492,-2.003425 -0.008,-0.05503 0.003,-0.113242 0.01,-0.237067 0.59549,0.378883 1.155,0.724958 1.70463,1.08585 0.40534,0.265994 0.56091,0.205317 0.58984,-0.278342 0.0399,-0.661458 0.0635,-1.324327 0.16969,-2.005189 0.21202,0.08008 0.33196,0.248356 0.46849,0.384528 0.38558,0.383117 0.76058,0.775759 1.13664,1.168753 0.18627,0.194381 0.30339,0.152753 0.38453,-0.09102 0.23425,-0.709789 0.47131,-1.418166 0.71932,-2.164997 0.3817,0.478367 0.61454,1.019881 0.93168,1.509183 0.14041,0.217664 0.19826,0.588434 0.45614,0.602192 0.27411,0.01376 0.33902,-0.358422 0.47414,-0.576086 0.248,-0.398286 0.48224,-0.804686 0.72319,-1.207206 0.0483,-0.08255 0.0953,-0.192969 0.20144,-0.185913 0.10865,0.0067 0.13229,0.13088 0.16122,0.216252 0.19685,0.605014 0.38558,1.212498 0.57855,1.818923 0.0981,0.310091 0.14746,0.312913 0.38594,0.07303 0.52105,-0.522112 1.05163,-1.036109 1.63583,-1.610784 0.0607,0.744009 0.11289,1.399822 0.16934,2.055989 0.0123,0.151695 -0.0332,0.32385 0.13793,0.422981 0.18168,0.104775 0.28258,-0.04128 0.41205,-0.124178 0.50553,-0.324908 1.01564,-0.642056 1.52682,-0.95885 0.0579,-0.03598 0.14464,-0.08537 0.19156,-0.06632 0.0991,0.04127 0.0497,0.14605 0.037,0.224719 -0.10195,0.617361 -0.2092,1.234722 -0.30868,1.853494 -0.0702,0.440973 0.003,0.497417 0.43709,0.349956 0.58138,-0.197203 1.1617,-0.402519 1.74307,-0.600781 0.073,-0.02469 0.15699,-0.109008 0.23143,-0.02328 0.0649,0.0755 0.01,0.16122 -0.0303,0.234245 -0.32244,0.595136 -0.50835,1.249891 -0.79516,1.860197 -0.12383,0.264583 -0.0702,0.354189 0.21801,0.322439 0.63641,-0.0702 1.27459,-0.133703 1.91276,-0.199673 0.11572,-0.01129 0.23284,-0.05256 0.38277,0.03034 z" />
        <path
           inkscape:connector-curvature="0"
           id="path120852"
           style="fill:#1c241f;fill-opacity:1;fill-rule:nonzero;stroke:none;stroke-width:0.30568019;stroke-linecap:round;stroke-linejoin:round;stroke-miterlimit:10"
           d="m 125.24117,33.59165 c -0.41063,0 -0.82127,0 -1.23049,0 -0.80751,0 -1.42205,-0.618773 -1.3462,-1.320095 0.1143,-1.061155 -0.24412,-1.857727 -0.94403,-2.648655 -0.89429,-1.011414 -1.52153,-2.214386 -1.93358,-3.520722 -1.02799,-3.257903 1.24848,-6.829778 4.6482,-7.267928 2.81129,-0.360892 5.32201,1.160286 6.25757,3.804708 0.6149,1.740606 0.28681,3.383139 -0.54821,4.969228 -0.5581,1.061155 -1.25131,2.027061 -2.04647,2.918883 -0.1531,0.172156 -0.2039,0.334786 -0.19438,0.55245 0.018,0.360892 0.0236,0.723547 0.0166,1.084439 -0.0138,0.846314 -0.60219,1.422047 -1.44815,1.427692 -0.41099,0 -0.82162,0 -1.23084,0 z m 1.04598,-2.399242 v 1.197681 c 0,0.37465 0.12136,0.451908 0.47273,0.312913 0.23989,-0.09525 0.31538,-0.282575 0.31538,-0.516819 0.001,-0.458964 0.0152,-0.917928 -0.007,-1.375481 -0.0124,-0.27693 0.0787,-0.480836 0.26317,-0.678038 0.6477,-0.684742 1.21285,-1.435806 1.7018,-2.240492 0.58843,-0.964847 1.06927,-1.981553 1.137,-3.12808 0.17921,-3.036006 -2.4197,-5.450417 -5.49698,-5.131859 -2.89807,0.301625 -4.93324,3.315406 -4.12468,6.100586 0.50165,1.721203 1.5173,3.129492 2.69558,4.43865 0.14746,0.1651 0.22472,0.325261 0.22048,0.544336 -0.008,0.483659 0.003,0.965906 0.001,1.448153 -0.001,0.290689 0.1323,0.486481 0.40923,0.567972 0.24271,0.07161 0.42439,0.05927 0.3817,-0.288219 -0.0289,-0.249414 0.001,-0.506942 -0.007,-0.759178 -0.0194,-0.602192 0.0907,-1.215672 -0.0526,-1.803753 -0.39546,-1.615369 -0.8255,-3.220508 -1.23613,-4.831644 -0.0399,-0.152753 -0.0896,-0.274108 -0.22295,-0.385939 -0.25083,-0.210608 -0.20673,-0.544336 0.0907,-0.679097 1.61643,-0.732014 3.24132,-0.738717 4.86198,-0.01129 0.31962,0.144992 0.36654,0.472722 0.10054,0.700264 -0.11324,0.0949 -0.16263,0.192969 -0.19579,0.325261 -0.22613,0.887236 -0.47554,1.76918 -0.68086,2.661003 -0.27975,1.213908 -0.80468,2.387952 -0.6283,3.533069 z m -1.47037,0.118533 v 0.796573 c 0,0.678038 0,0.669572 0.66428,0.658636 0.21202,-0.0035 0.26035,-0.07726 0.25753,-0.274109 -0.01,-0.724958 0,-1.448505 -0.005,-2.173111 -0.001,-0.219075 0.0356,-0.427214 0.091,-0.639586 0.4131,-1.598436 0.81703,-3.198283 1.22343,-4.796719 0.0402,-0.155928 0.0787,-0.275872 -0.15275,-0.350308 -1.09432,-0.349956 -2.17734,-0.355248 -3.26743,0.01129 -0.16827,0.05645 -0.1972,0.128059 -0.15416,0.287867 0.21907,0.8255 0.44626,1.648178 0.63923,2.478969 0.30727,1.320448 0.8696,2.596445 0.70415,4.0005 z" />
        <path
           inkscape:connector-curvature="0"
           id="path120854"
           style="fill:#1c241f;fill-opacity:1;fill-rule:nonzero;stroke:none;stroke-width:0.30568019;stroke-linecap:round;stroke-linejoin:round;stroke-miterlimit:10"
           d="m 79.538456,17.274267 c -0.02999,0.06209 -0.07408,0.147461 -0.115711,0.232833 -0.496006,1.056922 -0.04939,2.293056 1.001889,2.778125 0.212372,0.09807 0.431447,0.166864 0.66428,0.140758 0.276931,-0.03316 0.404989,0.07303 0.464256,0.348545 0.282575,1.303514 0.337608,2.598914 -0.03704,3.895725 -0.05644,0.190147 -0.139347,0.235655 -0.32385,0.242358 -1.468967,0.04974 -2.433461,1.561394 -1.75013,2.934053 0.111477,0.223308 0.100541,0.358422 -0.08008,0.531989 -0.970139,0.926041 -2.097264,1.565275 -3.387019,1.9304 -0.214842,0.06068 -0.294923,-0.03845 -0.403931,-0.188737 -0.748242,-1.029405 -1.91523,-1.244247 -2.909005,-0.548216 -0.221898,0.155575 -0.384528,0.363714 -0.523523,0.590903 -0.09384,0.154516 -0.197202,0.19438 -0.385938,0.144638 -1.340909,-0.351366 -2.474737,-1.052688 -3.464278,-2.007658 -0.111831,-0.107597 -0.135114,-0.205317 -0.0441,-0.376061 0.741186,-1.395942 -0.137936,-2.923117 -1.722614,-3.007078 -0.183445,-0.01094 -0.283986,-0.05221 -0.329495,-0.248002 -0.298802,-1.300692 -0.326319,-2.597503 -0.01094,-3.899959 0.05786,-0.234244 0.137936,-0.339019 0.40252,-0.345722 1.45803,-0.03986 2.368902,-1.569508 1.711325,-2.892425 -0.137584,-0.279753 -0.08114,-0.414867 0.124177,-0.602192 0.960614,-0.876652 2.058811,-1.500716 3.303059,-1.870074 0.168275,-0.04974 0.274461,-0.05503 0.384527,0.125236 0.847373,1.382183 2.744964,1.335616 3.509786,-0.03034 0.08149,-0.144639 0.173567,-0.159809 0.328084,-0.117122 1.303514,0.365477 2.428169,1.040694 3.425825,1.944511 0.129469,0.117122 0.167922,0.176388 0.167922,0.293511 z M 69.455362,22.65695 c 0.0014,2.469444 1.965325,4.441472 4.430536,4.433005 2.423936,-0.0081 4.351866,-1.966383 4.385027,-4.295069 0.03845,-2.621139 -1.984375,-4.478867 -4.339519,-4.522964 -2.5908,-0.04939 -4.514497,2.123722 -4.476044,4.385028 z" />
        <path
           inkscape:connector-curvature="0"
           id="path120856"
           style="fill:#1c241f;fill-opacity:1;fill-rule:nonzero;stroke:none;stroke-width:0.30568019;stroke-linecap:round;stroke-linejoin:round;stroke-miterlimit:10"
           d="m 82.933942,14.587158 c -0.02893,-0.195791 -0.08255,-0.439561 -0.201083,-0.667102 -0.07585,-0.143228 -0.05362,-0.252236 0.07585,-0.371828 0.726369,-0.671336 1.539169,-1.179689 2.505428,-1.430514 0.159808,-0.04127 0.271286,-0.05503 0.358069,0.115711 0.471311,0.926042 1.91135,0.983897 2.578453,0.05786 0.138994,-0.19297 0.269875,-0.237067 0.483658,-0.169334 0.924631,0.289278 1.710267,0.800453 2.413,1.457678 0.118533,0.113242 0.152753,0.19297 0.05927,0.332317 -0.623006,0.926041 0.24518,2.137127 1.051277,2.214386 0.454731,0.04269 0.595489,0.261761 0.635353,0.675216 0.08255,0.843492 0.115711,1.678517 -0.08537,2.513542 -0.04127,0.174978 -0.09948,0.237067 -0.276931,0.245533 -1.123244,0.05503 -1.838325,1.206853 -1.316213,2.248959 0.08149,0.16263 0.05503,0.261761 -0.06738,0.376061 -0.732014,0.691797 -1.573742,1.186391 -2.54388,1.466144 -0.195792,0.05645 -0.246592,-0.05785 -0.337609,-0.176389 -0.530578,-0.695677 -1.347964,-0.866775 -2.082447,-0.449086 -0.172156,0.09772 -0.333375,0.22472 -0.415925,0.386997 -0.136525,0.267406 -0.300567,0.278695 -0.555625,0.197203 -0.935567,-0.296333 -1.745897,-0.796572 -2.451453,-1.4732 -0.100541,-0.09631 -0.0949,-0.170744 -0.03034,-0.281164 0.5334,-0.897114 -0.06597,-2.152297 -1.088672,-2.247547 -0.487539,-0.04551 -0.530225,-0.348544 -0.5842,-0.688975 -0.123825,-0.803275 -0.08114,-1.60408 0.06491,-2.401711 0.03704,-0.204258 0.108656,-0.300567 0.344311,-0.319969 0.814564,-0.06738 1.468967,-0.778581 1.467556,-1.610784 z m 4.064,-0.03739 c -2.039408,-0.07691 -3.406422,1.551869 -3.389842,3.364089 0.01517,1.721203 1.448153,3.363736 3.468511,3.304469 1.78047,-0.05398 3.319639,-1.54058 3.260372,-3.487914 -0.04974,-1.656291 -1.528233,-3.261783 -3.339041,-3.180644 z" />
        <path
           inkscape:connector-curvature="0"
           id="path120858"
           style="fill:#1c241f;fill-opacity:1;fill-rule:nonzero;stroke:none;stroke-width:0.30568019;stroke-linecap:round;stroke-linejoin:round;stroke-miterlimit:10"
           d="m 88.863784,30.057169 c 0.03845,0.265642 -0.03457,0.461433 -0.422981,0.604661 -0.727781,0.270228 -0.944033,1.129947 -0.496006,1.776589 0.126648,0.181681 0.09349,0.280811 -0.01658,0.428272 -0.448028,0.600781 -1.011414,1.058334 -1.671814,1.407231 -0.143228,0.07444 -0.214842,0.05786 -0.334786,-0.0568 -0.668161,-0.635 -1.563864,-0.483659 -1.977319,0.341841 -0.09243,0.184856 -0.187325,0.206728 -0.358423,0.184856 -0.73025,-0.09102 -1.401586,-0.337608 -2.02565,-0.724958 -0.150283,-0.09384 -0.197202,-0.165453 -0.151694,-0.362303 0.202494,-0.889 -0.392642,-1.572331 -1.311981,-1.528234 -0.152752,0.0067 -0.239536,-0.02081 -0.303036,-0.173919 -0.287866,-0.701322 -0.439561,-1.423458 -0.403578,-2.185458 0.0081,-0.176389 0.07691,-0.239889 0.238125,-0.2921 0.865717,-0.282575 1.174045,-1.105253 0.67945,-1.856317 -0.125236,-0.188736 -0.07726,-0.289278 0.02752,-0.427214 0.452261,-0.593725 1.006122,-1.063625 1.675695,-1.399822 0.122766,-0.06068 0.203905,-0.09666 0.303388,0.03034 0.522112,0.66675 1.723673,0.487539 2.018595,-0.350308 0.04974,-0.140406 0.133703,-0.167923 0.275872,-0.154164 0.782461,0.07973 1.495072,0.347133 2.156531,0.769055 0.132291,0.08396 0.123825,0.170745 0.09631,0.301625 -0.190147,0.928864 0.358422,1.577975 1.319036,1.543403 0.173567,-0.0056 0.221544,0.05927 0.283633,0.192969 0.27305,0.591256 0.384528,1.212498 0.399698,1.930753 z m -6.130925,-0.0441 c -0.0067,0.771525 0.623005,1.414992 1.387827,1.419225 0.753534,0.0042 1.417814,-0.653345 1.416403,-1.397353 -0.0014,-0.748241 -0.624064,-1.380772 -1.37795,-1.400175 -0.766233,-0.01799 -1.419225,0.613481 -1.42628,1.378303 z" />
        <path
           inkscape:connector-curvature="0"
           id="path120860"
           style="fill:#6c5d53;fill-opacity:1;fill-rule:nonzero;stroke:none;stroke-width:0.30568019;stroke-linecap:round;stroke-linejoin:round;stroke-miterlimit:10"
           d="m 63.956967,25.132039 c 0.268817,-0.0441 0.439914,0.03034 0.599723,0.378883 0.263172,0.577497 0.944033,0.799042 1.562452,0.373239 0.191559,-0.130881 0.308681,-0.121003 0.471311,-0.0067 0.508706,0.360892 0.930275,0.800453 1.254125,1.335264 0.101953,0.170744 0.118534,0.299156 -0.02752,0.479425 -0.45332,0.563739 -0.297745,1.317625 0.352778,1.645356 0.24518,0.125588 0.303036,0.270227 0.271286,0.507294 -0.0755,0.578908 -0.225778,1.13418 -0.506942,1.646767 -0.09384,0.169333 -0.180622,0.293511 -0.446617,0.243769 -0.719314,-0.133703 -1.349022,0.466019 -1.266472,1.194858 0.02505,0.223309 -0.05362,0.310092 -0.214842,0.38735 -0.596547,0.285045 -1.233311,0.398286 -1.889125,0.422981 -0.14358,0.0056 -0.209549,-0.04833 -0.259291,-0.187325 -0.261761,-0.734483 -1.063625,-1.065389 -1.756833,-0.556683 -0.101953,0.07549 -0.184856,0.07408 -0.318559,0 -0.61595,-0.337609 -1.020939,-0.865364 -1.37795,-1.445331 -0.08114,-0.132292 -0.04127,-0.230364 0.05115,-0.354189 0.494594,-0.662869 0.349956,-1.322916 -0.377825,-1.715558 -0.188736,-0.101953 -0.242358,-0.198614 -0.212019,-0.423333 0.08114,-0.61595 0.221897,-1.204384 0.529166,-1.7526 0.107597,-0.19297 0.239889,-0.246945 0.439561,-0.210962 0.696031,0.125237 1.258006,-0.315736 1.227667,-1.027994 -0.01623,-0.375003 0.151694,-0.518231 0.442383,-0.624417 0.454731,-0.163688 0.910873,-0.322438 1.452386,-0.31115 z m 1.452739,4.314472 c 0.0095,-0.668161 -0.566561,-1.271764 -1.217083,-1.275997 -0.716492,-0.0042 -1.296458,0.542925 -1.304925,1.229077 -0.0081,0.672395 0.583142,1.291167 1.245658,1.303867 0.676628,0.01376 1.266472,-0.567972 1.27635,-1.256947 z" />
        <path
           inkscape:connector-curvature="0"
           id="path120862"
           style="fill:#6c5d53;fill-opacity:1;fill-rule:nonzero;stroke:none;stroke-width:0.30568019;stroke-linecap:round;stroke-linejoin:round;stroke-miterlimit:10"
           d="m 93.718711,22.010661 c 0.245181,-0.06068 0.396875,0.06879 0.511175,0.37465 0.27552,0.741539 1.125714,1.015647 1.791406,0.587022 0.250825,-0.162278 0.420511,-0.1651 0.66428,0.02646 0.569031,0.447675 1.026584,0.976841 1.386417,1.599847 0.08819,0.154164 0.08396,0.264583 -0.04551,0.414866 -0.61207,0.705556 -0.460375,1.547284 0.363713,1.992489 0.238478,0.12947 0.276931,0.268817 0.242359,0.519642 -0.09772,0.702733 -0.30727,1.361369 -0.662517,1.974497 -0.09525,0.162631 -0.17533,0.259292 -0.420511,0.20955 -0.873478,-0.174978 -1.586089,0.442383 -1.552928,1.335264 0.0095,0.259292 -0.0896,0.361244 -0.300566,0.45473 -0.675217,0.299156 -1.386064,0.388762 -2.112434,0.425803 -0.206727,0.0099 -0.256469,-0.103364 -0.319616,-0.264583 -0.270228,-0.687564 -0.682273,-0.938389 -1.397353,-0.890058 -0.203906,0.01376 -0.394053,0.08396 -0.527756,0.20955 -0.218016,0.203905 -0.358422,0.107244 -0.551391,-0.03034 -0.582789,-0.413456 -1.011414,-0.956381 -1.376539,-1.559984 -0.115711,-0.190147 -0.119945,-0.347133 0.04269,-0.516819 0.591255,-0.617361 0.322439,-1.67005 -0.445206,-1.992489 -0.185913,-0.07726 -0.219075,-0.187678 -0.206727,-0.361244 0.05256,-0.775759 0.307269,-1.482725 0.691797,-2.149828 0.08819,-0.155575 0.203905,-0.195439 0.391583,-0.158397 0.872067,0.172155 1.561042,-0.402167 1.533525,-1.2954 -0.0081,-0.278342 0.0829,-0.392642 0.333728,-0.496006 0.611717,-0.249414 1.240014,-0.383116 1.966383,-0.409222 z m 0,7.694789 c 1.524,0 2.767189,-1.234722 2.768247,-2.746375 0.0014,-1.500717 -1.285522,-2.769658 -2.80423,-2.765778 -1.49225,0.0035 -2.711803,1.266472 -2.706511,2.804583 0.0042,1.518356 1.210028,2.70757 2.742494,2.70757 z" />
        <path
           inkscape:connector-curvature="0"
           id="path120864"
           style="fill:#1c241f;fill-opacity:1;fill-rule:nonzero;stroke:none;stroke-width:0.30568019;stroke-linecap:round;stroke-linejoin:round;stroke-miterlimit:10"
           d="m 99.824589,33.535205 c 0.437091,0.261761 0.902761,0.471311 1.296811,0.804686 0.24659,0.208139 0.3997,0.373592 0.26176,0.748242 -0.2547,0.685094 0.21378,1.400175 0.94545,1.480255 0.27163,0.02999 0.34184,0.147462 0.37359,0.378884 0.0921,0.661458 0.11853,1.315861 -0.0388,1.974497 -0.048,0.198614 -0.13617,0.292453 -0.33196,0.299156 -0.78423,0.02893 -1.24037,0.904169 -0.91511,1.595966 0.091,0.195439 0.0346,0.313972 -0.10618,0.439561 -0.52353,0.461434 -1.12713,0.774347 -1.782943,1.000478 -0.184855,0.06315 -0.285397,0.0039 -0.396875,-0.139347 -0.50165,-0.643467 -1.336675,-0.649111 -1.839736,0 -0.142169,0.182033 -0.27693,0.19438 -0.466019,0.140405 -0.663928,-0.190147 -1.204384,-0.593725 -1.741664,-1.002947 -0.168275,-0.129822 -0.201084,-0.278342 -0.08961,-0.471311 0.367947,-0.640997 -0.182033,-1.510594 -0.872419,-1.558572 -0.227189,-0.01658 -0.351367,-0.117122 -0.400756,-0.369358 -0.13088,-0.675217 -0.117122,-1.340909 0.01905,-2.00907 0.03316,-0.157339 0.08678,-0.248355 0.27305,-0.271639 0.801864,-0.100541 1.365603,-0.877711 0.952147,-1.663347 -0.08678,-0.165453 -0.02328,-0.274108 0.09243,-0.378883 0.55245,-0.503061 1.182159,-0.865364 1.902884,-1.072092 0.155927,-0.04551 0.216605,0.02893 0.293511,0.12947 0.530577,0.691797 1.339497,0.694619 1.882422,-0.0035 0.100542,-0.12947 0.19438,-0.152753 0.337608,-0.110067 0.113242,0.03281 0.22472,0.09349 0.351367,0.05503 v 0 z m -1.588911,1.806575 c -1.402645,-0.04551 -2.585156,1.129947 -2.587625,2.549525 -0.0014,1.36137 1.182158,2.534003 2.510719,2.52977 1.504597,-0.0039 2.622198,-1.1049 2.585158,-2.644423 -0.0318,-1.354666 -1.17828,-2.439105 -2.508252,-2.434872 z" />
        <path
           inkscape:connector-curvature="0"
           id="path120866"
           style="fill:#6c5d53;fill-opacity:1;fill-rule:nonzero;stroke:none;stroke-width:0.30568019;stroke-linecap:round;stroke-linejoin:round;stroke-miterlimit:10"
           d="m 100.79332,32.906908 c 0.0621,-0.791281 -0.17886,-1.084792 -0.987781,-1.170164 -0.154517,-0.01658 -0.208139,-0.09631 -0.25647,-0.20955 -0.210961,-0.498828 -0.265994,-1.020939 -0.239889,-1.558219 0.0071,-0.139347 0.0829,-0.171097 0.197203,-0.208139 0.518227,-0.166864 0.844907,-0.759531 0.472722,-1.382183 -0.08537,-0.143581 -0.0702,-0.232834 0.03033,-0.349956 0.33338,-0.385939 0.71085,-0.718256 1.14653,-0.985308 0.14323,-0.0882 0.24659,-0.08008 0.38312,0.0314 0.48789,0.399697 1.06645,0.32138 1.38747,-0.209197 0.12841,-0.213784 0.28117,-0.253648 0.47555,-0.206728 0.43286,0.104775 0.86113,0.227189 1.2513,0.456142 0.1584,0.09349 0.22578,0.183091 0.19297,0.398286 -0.0981,0.631119 0.2921,1.075972 0.93698,1.08973 0.19015,0.0042 0.27834,0.07056 0.34572,0.238478 0.18909,0.467078 0.24271,0.952147 0.2346,1.450975 -0.004,0.171097 -0.0692,0.242711 -0.22472,0.310092 -0.59549,0.262113 -0.77047,0.789869 -0.45085,1.363133 0.0815,0.14605 0.0607,0.234244 -0.0275,0.352778 -0.31397,0.424391 -0.71085,0.74683 -1.17404,0.997655 -0.16653,0.08961 -0.25365,0.01235 -0.37889,-0.07867 -0.52107,-0.37465 -1.04457,-0.268817 -1.37655,0.281164 -0.0815,0.135114 -0.1725,0.184502 -0.31995,0.170744 -0.55104,-0.05221 -1.05552,-0.231422 -1.51167,-0.544336 -0.084,-0.05786 -0.14887,-0.126647 -0.10617,-0.238125 z m 3.08433,-2.714978 c 0.002,-0.579966 -0.47272,-1.07068 -1.04316,-1.077383 -0.53905,-0.0056 -1.03928,0.487539 -1.04881,1.034697 -0.01,0.588433 0.45614,1.061156 1.04458,1.061156 0.57749,0 1.04598,-0.454731 1.04739,-1.01847 z" />
        <path
           inkscape:connector-curvature="0"
           id="path120868"
           style="fill:#1c241f;fill-opacity:1;fill-rule:nonzero;stroke:none;stroke-width:0.30568019;stroke-linecap:round;stroke-linejoin:round;stroke-miterlimit:10"
           d="m 98.807883,22.962808 c -0.02646,-0.137583 0.0508,-0.255058 0.248003,-0.352778 0.391231,-0.19438 0.496006,-0.494594 0.333375,-0.902405 -0.07726,-0.191558 -0.06879,-0.321381 0.07726,-0.48507 0.170745,-0.191558 0.363714,-0.350308 0.566209,-0.49918 0.19579,-0.143228 0.37782,-0.235303 0.62971,-0.0247 0.26599,0.219075 0.71825,0.111831 0.88476,-0.192969 0.12277,-0.221897 0.24412,-0.234244 0.46179,-0.180269 0.2219,0.05644 0.44379,0.105833 0.65158,0.206727 0.23989,0.115711 0.45085,0.198261 0.39582,0.573264 -0.0554,0.377472 0.21625,0.621242 0.65017,0.670984 0.19155,0.02187 0.27975,0.09772 0.32808,0.265994 0.0621,0.219075 0.14323,0.432506 0.1584,0.665339 0.0194,0.267405 0.036,0.496358 -0.28399,0.649111 -0.33867,0.161219 -0.43674,0.544336 -0.27129,0.901347 0.0868,0.187325 0.0716,0.311503 -0.0744,0.442384 -0.15311,0.136525 -0.28646,0.296333 -0.44521,0.42298 -0.24518,0.197203 -0.47519,0.369358 -0.81139,0.08537 -0.25223,-0.212019 -0.65193,-0.09066 -0.83784,0.231775 -0.11995,0.209197 -0.266,0.219075 -0.4438,0.183092 -0.32103,-0.06597 -0.62018,-0.190147 -0.90699,-0.348544 -0.141815,-0.07867 -0.148518,-0.195792 -0.149929,-0.336198 -0.0085,-0.542925 -0.190147,-0.749652 -0.722136,-0.781402 -0.147461,-0.0085 -0.186266,-0.07161 -0.224719,-0.1778 -0.112889,-0.305859 -0.194381,-0.618773 -0.213431,-1.017059 z m 3.484737,0 c 0,-0.424391 -0.35807,-0.797983 -0.76588,-0.800453 -0.42051,-0.0035 -0.82162,0.391231 -0.8188,0.801864 0.003,0.432859 0.37642,0.792339 0.81986,0.787048 0.43286,-0.0042 0.76623,-0.348898 0.76482,-0.788459 z" />
        <path
           inkscape:connector-curvature="0"
           id="path120870"
           style="fill:#1c241f;fill-opacity:1;fill-rule:nonzero;stroke:none;stroke-width:0.30568019;stroke-linecap:round;stroke-linejoin:round;stroke-miterlimit:10"
           d="m 93.302433,34.102825 c 0.04551,0.192969 -0.03986,0.332316 -0.257527,0.452261 -0.263173,0.144639 -0.346075,0.399344 -0.203906,0.680508 0.05503,0.109008 0.103011,0.197203 0.01094,0.290689 -0.1778,0.179211 -0.317147,0.396875 -0.539044,0.530578 -0.158397,0.09666 -0.282222,0.150283 -0.490361,0.0441 -0.2413,-0.122414 -0.556684,-0.156986 -0.751064,0.121355 -0.141817,0.203906 -0.294922,0.199673 -0.497417,0.147462 -0.223308,-0.05927 -0.437092,-0.128059 -0.633942,-0.253648 -0.11183,-0.07161 -0.182033,-0.133702 -0.166863,-0.282222 0.04127,-0.383116 -0.156987,-0.599722 -0.523523,-0.642408 -0.182033,-0.02187 -0.26035,-0.123825 -0.293511,-0.267406 -0.05397,-0.234244 -0.08537,-0.47378 -0.119944,-0.710847 -0.02328,-0.16263 0.03845,-0.271639 0.201083,-0.336197 0.246592,-0.09948 0.38735,-0.332317 0.294922,-0.552803 -0.234244,-0.564797 0.191559,-0.751064 0.510117,-1.0033 0.167922,-0.132292 0.338667,-0.190147 0.543983,-0.01235 0.194381,0.166864 0.448028,0.113242 0.583142,-0.07444 0.267406,-0.37465 0.576086,-0.245181 0.894292,-0.133703 0.290689,0.102306 0.556683,0.20955 0.493183,0.621594 -0.03563,0.2413 0.201436,0.403931 0.379236,0.421923 0.515408,0.0508 0.498828,0.426861 0.553861,0.774347 0.0067,0.04833 0.0067,0.09631 0.01235,0.184503 z m -1.5875,0.09243 c 0.0042,-0.383116 -0.2413,-0.646288 -0.61595,-0.657225 -0.380294,-0.01235 -0.690386,0.296334 -0.684741,0.680509 0.0039,0.330905 0.318205,0.621594 0.669572,0.618772 0.376061,-0.0035 0.625475,-0.257528 0.631119,-0.642056 z" />
        <path
           inkscape:connector-curvature="0"
           id="path120872"
           style="fill:#6c5d53;fill-opacity:1;fill-rule:nonzero;stroke:none;stroke-width:0.30568019;stroke-linecap:round;stroke-linejoin:round;stroke-miterlimit:10"
           d="m 84.800136,38.461747 c 0.0039,-0.334786 -0.184855,-0.5969 -0.504472,-0.610659 -0.238478,-0.0095 -0.301978,-0.123825 -0.359833,-0.307269 -0.07444,-0.232833 -0.07585,-0.475192 -0.09913,-0.713669 -0.01235,-0.124178 0.03457,-0.187678 0.153106,-0.246592 0.383116,-0.197203 0.468489,-0.409575 0.304447,-0.788458 -0.0635,-0.147462 -0.06068,-0.242359 0.04692,-0.352778 0.159809,-0.164042 0.313973,-0.330553 0.511175,-0.454731 0.158398,-0.101952 0.286456,-0.164041 0.475545,-0.0095 0.239536,0.19685 0.548217,0.144639 0.702733,-0.09384 0.183092,-0.282575 0.38982,-0.217663 0.61595,-0.159808 0.150284,0.03845 0.2921,0.110067 0.435328,0.172156 0.162631,0.07161 0.263172,0.153105 0.230364,0.377825 -0.04692,0.316794 0.173567,0.582788 0.493183,0.589491 0.2413,0.0071 0.299156,0.135114 0.357011,0.312914 0.07161,0.221897 0.08396,0.449439 0.09631,0.678039 0.0071,0.14605 -0.02752,0.231422 -0.181681,0.301978 -0.332317,0.151341 -0.442383,0.431094 -0.279753,0.736953 0.104775,0.200025 0.0441,0.312913 -0.08819,0.43568 -0.124178,0.1143 -0.244122,0.234245 -0.377825,0.337608 -0.179211,0.137584 -0.330553,0.268464 -0.592314,0.05503 -0.219075,-0.180622 -0.544336,-0.111478 -0.700264,0.143228 -0.137583,0.227541 -0.297744,0.206727 -0.482247,0.157338 -0.184503,-0.04833 -0.363714,-0.122766 -0.538692,-0.200025 -0.155928,-0.0702 -0.322439,-0.150283 -0.217664,-0.360891 z m 1.905706,-1.601259 c -0.0014,-0.346075 -0.297745,-0.6477 -0.638175,-0.650522 -0.373239,-0.0042 -0.66675,0.281164 -0.66675,0.650522 -0.0014,0.360892 0.303036,0.658637 0.669572,0.654403 0.333375,-0.0035 0.636764,-0.315383 0.635353,-0.654403 z" />
        <path
           inkscape:connector-curvature="0"
           id="path120874"
           style="fill:#6c5d53;fill-opacity:1;fill-rule:nonzero;stroke:none;stroke-width:0.30568019;stroke-linecap:round;stroke-linejoin:round;stroke-miterlimit:10"
           d="m 77.001631,13.308339 c -0.01094,-0.153106 0.0081,-0.276931 0.184503,-0.344664 0.319969,-0.119592 0.408164,-0.400755 0.307622,-0.679097 -0.117122,-0.326672 0.03422,-0.512939 0.245181,-0.675217 0.252236,-0.19438 0.465666,-0.526697 0.879122,-0.200025 0.176389,0.140759 0.465666,0.05256 0.606425,-0.16263 0.147461,-0.22472 0.334786,-0.20955 0.53728,-0.152753 0.16122,0.04551 0.314325,0.119592 0.472722,0.1778 0.194381,0.07302 0.279753,0.201083 0.249414,0.415925 -0.04551,0.328083 0.14605,0.48648 0.436739,0.548569 0.333728,0.0702 0.592667,0.45332 0.539045,0.80892 -0.03881,0.246591 -0.07444,0.465666 -0.346075,0.607836 -0.201084,0.105833 -0.246592,0.35948 -0.143228,0.578555 0.124178,0.259292 0.03986,0.446617 -0.166864,0.592667 -0.293511,0.205317 -0.538692,0.541514 -0.9906,0.253647 -0.202494,-0.129822 -0.463197,-0.0056 -0.599369,0.202495 -0.139348,0.210608 -0.303389,0.199672 -0.496359,0.133702 -0.169333,-0.05927 -0.339019,-0.121355 -0.50553,-0.191558 -0.179211,-0.07444 -0.290689,-0.186266 -0.264584,-0.413455 0.02752,-0.235656 -0.07444,-0.490714 -0.305858,-0.507295 -0.554214,-0.03704 -0.539044,-0.453319 -0.62865,-0.8128 -0.01376,-0.05785 -0.0081,-0.119944 -0.01094,-0.180622 z m 1.591733,-0.06632 c 0,0.351719 0.285045,0.646289 0.629709,0.656166 0.343252,0.0081 0.66428,-0.293511 0.66428,-0.627238 0,-0.376062 -0.281164,-0.660048 -0.661458,-0.668162 -0.359833,-0.0081 -0.633942,0.270228 -0.632531,0.639234 z" />
        <path
           inkscape:connector-curvature="0"
           id="path120876"
           style="fill:#1c241f;fill-opacity:1;fill-rule:nonzero;stroke:none;stroke-width:0.30568019;stroke-linecap:round;stroke-linejoin:round;stroke-miterlimit:10"
           d="m 98.023658,19.823792 c 0.0194,0.198261 -0.06068,0.311502 -0.242711,0.396875 -0.269875,0.123825 -0.373239,0.386997 -0.269875,0.633941 0.137584,0.32385 -0.0099,0.494595 -0.216605,0.679097 -0.253295,0.228953 -0.483659,0.440973 -0.879123,0.215195 -0.198261,-0.113242 -0.490361,-0.08537 -0.642055,0.164042 -0.141817,0.234244 -0.340431,0.19685 -0.536222,0.148519 -0.16122,-0.03986 -0.313973,-0.119592 -0.468489,-0.185914 -0.172156,-0.07303 -0.290689,-0.147461 -0.254706,-0.396875 0.03704,-0.261761 -0.09525,-0.53728 -0.399697,-0.542925 -0.307269,-0.0067 -0.381705,-0.168275 -0.451908,-0.403578 -0.06068,-0.200025 -0.07444,-0.399697 -0.0829,-0.605013 -0.0053,-0.15875 0.02752,-0.257881 0.197203,-0.330906 0.282575,-0.122414 0.4064,-0.395464 0.286455,-0.655814 -0.143227,-0.312914 0.0085,-0.478367 0.19297,-0.650522 0.132291,-0.121356 0.290689,-0.212372 0.437091,-0.318206 0.111478,-0.08149 0.205317,-0.08431 0.323498,0.0081 0.286808,0.226131 0.576086,0.190147 0.787047,-0.09631 0.253647,-0.343253 0.526344,-0.12947 0.774347,-0.04833 0.235656,0.07726 0.534811,0.148873 0.482247,0.522111 -0.04127,0.296334 0.151695,0.511528 0.38735,0.518231 0.416278,0.01094 0.446617,0.275519 0.503061,0.559506 0.0247,0.129469 0.04833,0.259291 0.07303,0.388761 z m -2.239433,-0.56515 c -0.351367,0 -0.644878,0.289277 -0.649111,0.638175 -0.0039,0.360891 0.296333,0.66428 0.665692,0.672394 0.311502,0.0071 0.631119,-0.334786 0.626886,-0.669572 -0.0053,-0.354189 -0.293511,-0.640997 -0.643467,-0.640997 z" />
        <path
           inkscape:connector-curvature="0"
           id="path120878"
           style="fill:#1c241f;fill-opacity:1;fill-rule:nonzero;stroke:none;stroke-width:0.30568019;stroke-linecap:round;stroke-linejoin:round;stroke-miterlimit:10"
           d="m 75.321703,11.066083 c 0,0.385939 0.171097,0.610659 0.539045,0.636764 0.187325,0.01376 0.256116,0.09243 0.290689,0.246592 0.0441,0.198614 0.09384,0.398286 0.123825,0.599722 0.02787,0.19685 0.0099,0.351367 -0.231423,0.450497 -0.294922,0.119945 -0.403577,0.451909 -0.234244,0.728839 0.118533,0.19297 0.0388,0.28822 -0.06738,0.396875 -0.144639,0.143581 -0.299155,0.278342 -0.460375,0.403931 -0.16263,0.126647 -0.305858,0.188736 -0.524933,0.02752 -0.252236,-0.183445 -0.552803,-0.119945 -0.723547,0.153105 -0.115711,0.183092 -0.2286,0.213431 -0.407811,0.149931 -0.147461,-0.05221 -0.299156,-0.09066 -0.443795,-0.14605 -0.2413,-0.09066 -0.427214,-0.185914 -0.396875,-0.529167 0.02611,-0.312561 -0.213783,-0.509764 -0.530577,-0.516819 -0.174978,-0.0035 -0.230012,-0.07408 -0.272698,-0.214842 -0.133702,-0.427214 -0.311502,-0.84455 0.221898,-1.16452 0.214841,-0.128058 0.24518,-0.420158 0.117122,-0.61983 -0.137936,-0.215195 -0.0568,-0.333728 0.07832,-0.461786 0.14605,-0.140759 0.305859,-0.268817 0.464609,-0.395464 0.151341,-0.122767 0.282222,-0.153106 0.47378,-0.01517 0.281164,0.202495 0.573264,0.12947 0.763411,-0.172155 0.09102,-0.143581 0.182034,-0.175331 0.322439,-0.137936 0.255059,0.06491 0.510117,0.126647 0.734484,0.282575 0.117475,0.07973 0.224719,0.140405 0.164041,0.297391 z m -1.259416,0.964848 c -0.358423,0.0035 -0.680861,0.32385 -0.669573,0.665691 0.0095,0.345723 0.303037,0.624064 0.660048,0.628298 0.384527,0.0042 0.661458,-0.27552 0.650169,-0.656167 -0.0095,-0.360892 -0.290689,-0.640645 -0.640644,-0.637822 z" />
        <path
           inkscape:connector-curvature="0"
           id="path120880"
           style="fill:#1c241f;fill-opacity:1;fill-rule:nonzero;stroke:none;stroke-width:0.30568019;stroke-linecap:round;stroke-linejoin:round;stroke-miterlimit:10"
           d="m 65.265067,21.905886 c 0.02046,0.198614 -0.0127,0.340431 -0.220486,0.442383 -0.270228,0.132292 -0.379236,0.388761 -0.260703,0.669573 0.14605,0.346075 -0.05644,0.536222 -0.281163,0.697441 -0.219075,0.158397 -0.409223,0.478014 -0.770114,0.183092 -0.19297,-0.156986 -0.472722,-0.138995 -0.614539,0.08008 -0.210961,0.325262 -0.463197,0.276931 -0.747183,0.169687 -0.31115,-0.116064 -0.643467,-0.191559 -0.592314,-0.665692 0.02469,-0.232833 -0.183445,-0.428625 -0.405342,-0.43815 -0.341489,-0.01376 -0.412044,-0.216606 -0.471311,-0.478367 -0.03986,-0.1778 -0.06597,-0.354189 -0.06738,-0.535869 0,-0.135114 0.03845,-0.221897 0.172156,-0.279753 0.336197,-0.147461 0.430036,-0.421922 0.305858,-0.745772 -0.137583,-0.359481 0.127,-0.522111 0.325261,-0.683331 0.195792,-0.156986 0.398286,-0.40393 0.72637,-0.161219 0.257528,0.188736 0.535869,0.159808 0.702733,-0.154517 0.1143,-0.214841 0.290689,-0.199672 0.464256,-0.152753 0.184855,0.0508 0.358422,0.141817 0.534811,0.217664 0.168275,0.07303 0.261761,0.176389 0.248002,0.385939 -0.01658,0.245181 0.103364,0.506942 0.340431,0.533047 0.607836,0.06773 0.549981,0.521053 0.610657,0.916517 z m -2.217561,0.766233 c 0.350309,0.0035 0.664281,-0.286808 0.669925,-0.614539 0.0053,-0.325261 -0.30868,-0.675216 -0.617361,-0.686505 -0.354189,-0.01235 -0.709789,0.326672 -0.7112,0.67945 0,0.330905 0.305859,0.620183 0.658636,0.621594 z" />
        <path
           inkscape:connector-curvature="0"
           id="path120882"
           style="fill:#1c241f;fill-opacity:1;fill-rule:nonzero;stroke:none;stroke-width:0.30568019;stroke-linecap:round;stroke-linejoin:round;stroke-miterlimit:10"
           d="m 99.823178,33.533794 0.0085,-0.0071 -0.0071,0.0085 h -0.0014 z" />
        <path
           inkscape:connector-curvature="0"
           id="path120884"
           style="fill:#1c241f;fill-opacity:1;fill-rule:nonzero;stroke:none;stroke-width:0.30568019;stroke-linecap:round;stroke-linejoin:round;stroke-miterlimit:10"
           d="m 123.12062,34.794622 c 0.6283,0 1.66441,0 1.66441,0 v 0.0085 c 0.91792,0 1.54481,0.0035 2.20909,0 0.31821,-0.0035 0.65582,-0.188737 0.62018,-0.431448 -0.0413,-0.275519 -0.16686,-0.4064 -0.45473,-0.404989 -1.29116,0.0053 -2.55481,0.0039 -3.84633,0.0053 -0.29351,0 -0.59514,0.106186 -0.58949,0.43427 0.004,0.321027 0.12664,0.39123 0.39687,0.39123 z" />
        <path
           inkscape:connector-curvature="0"
           id="path120886"
           style="fill:#1c241f;fill-opacity:1;fill-rule:nonzero;stroke:none;stroke-width:0.30568019;stroke-linecap:round;stroke-linejoin:round;stroke-miterlimit:10"
           d="m 127.15957,35.040155 c -1.0488,0.0067 -2.0962,0.0039 -3.14466,0.0053 -0.25929,-0.118533 -0.52105,-0.01094 -0.77858,0 -0.375,0.01799 -0.47978,0.26035 -0.30198,0.625475 0.0564,0.165453 0.19721,0.184855 0.34185,0.186266 0.23283,0.0035 0.46707,-0.0035 0.70132,-0.0056 0.375,0.02505 0.74965,0.03316 1.12465,-0.0081 0.68475,0.0067 1.3709,0.01517 2.05882,0.01799 0.36653,0 0.57573,-0.146403 0.55809,-0.410986 -0.0236,-0.3429 -0.2607,-0.414514 -0.55951,-0.411692 z" />
        <path
           inkscape:connector-curvature="0"
           id="path120888"
           style="fill:#1c241f;fill-opacity:1;fill-rule:nonzero;stroke:none;stroke-width:0.30568019;stroke-linecap:round;stroke-linejoin:round;stroke-miterlimit:10"
           d="m 82.975571,37.057337 c 0.465667,0.581731 1.045986,1.027995 1.688042,1.398764 1.158875,0.668514 2.418291,0.865364 3.731683,0.792339 0.256117,-0.01376 0.392642,0.05256 0.531989,0.285397 1.256594,2.1082 3.117144,3.188758 5.579533,3.210631 0.819856,0.0071 1.641122,0.0042 2.461331,0 0.155575,0 0.248002,0 0.287866,0.20955 0.122767,0.63253 0.513997,0.936977 1.176867,0.935566 0.22613,0 0.274108,0.05927 0.274108,0.282575 -0.0081,1.871486 0,3.742972 0.0014,5.614106 0.0014,0.880533 -0.0014,1.762477 0.0014,2.643011 0.0028,0.64523 -0.281163,1.109486 -0.862541,1.385005 -0.337609,0.158397 -0.377472,0.122767 -0.391231,-0.237066 -0.02893,-0.708025 0.08537,-1.423459 -0.107597,-2.12337 -0.362303,-1.309158 -1.631597,-2.107142 -2.983442,-1.871486 -1.335263,0.232833 -2.265538,1.456619 -2.129013,2.838803 0.132291,1.33103 1.209675,2.339975 2.571397,2.342797 0.519289,0 1.037519,0.0039 1.557161,0.0053 0.104775,0 0.214841,-0.03281 0.254705,0.125588 0.104775,0.4064 -0.02752,0.589845 -0.44203,0.589845 -0.121356,0 -0.2413,0 -0.362656,0 -0.478014,0 -0.912283,0.16263 -1.238955,0.494594 -0.517878,0.522111 -0.595136,1.318684 -0.253295,1.981553 0.315384,0.61207 1.004359,0.944033 1.737431,0.839258 0.66428,-0.0949 1.223786,-0.621594 1.361722,-1.324327 0.05221,-0.268817 0.04692,-0.553861 0.02893,-0.829381 -0.01517,-0.252236 0.0441,-0.32385 0.301625,-0.32138 1.09855,0.01129 2.22003,-0.0035 3.279779,-0.0081 0.35419,0.04551 0.59937,0.03034 0.89183,0.01094 -0.0194,-0.03704 -0.018,-0.07161 -0.018,-0.103364 0,0.03175 0.0109,0.06632 0.0303,0.103364 0.21484,-0.0035 0.43391,-0.0067 0.64911,-0.0095 0.75776,0.03034 1.51447,0.05785 2.27083,-0.01517 0.21237,0.0056 0.4258,0.0095 0.63817,0.01376 0.21767,0.0441 0.43674,0.03316 0.65441,0.0035 0.0483,0.0035 0.0967,0.0067 0.14464,0.0067 5.61269,0 11.22715,-0.0053 16.83984,0 1.1617,0 2.19252,-0.293511 3.09492,-1.07068 1.02658,-0.884767 1.54482,-1.984375 1.56281,-3.318228 0.019,-1.435806 0.003,-2.873375 0.003,-4.30918 0.001,-3.668184 0.004,-7.338131 0.007,-11.006314 0.003,-0.203906 0,-0.407811 0.0123,-0.610658 0.0265,-0.391231 -0.0769,-0.789517 0.0607,-1.175456 0.2413,-0.0035 0.48366,-0.02046 0.72354,-0.0067 0.2921,0.01799 0.44239,-0.128411 0.44662,-0.394053 0.004,-0.275872 -0.17392,-0.409575 -0.44662,-0.408163 -0.36089,0 -0.72213,0.0056 -1.08443,0.0085 -0.23989,-0.0194 -0.48119,-0.04551 -0.72073,0.01517 -0.30198,-0.02081 -0.60642,-0.07867 -0.90135,0.04798 -0.19297,0.118534 -0.22189,0.299156 -0.14746,0.489303 0.073,0.187325 0.21625,0.312914 0.43286,0.312914 0.15416,0 0.30868,-0.0095 0.46284,-0.01517 0.2413,-0.02222 0.30198,0.07444 0.31433,0.32385 0.0261,0.494594 -0.006,0.986719 -0.006,1.479902 -10e-4,4.966406 -0.004,9.931753 0.004,14.898158 0.001,0.646289 -0.0607,1.273175 -0.31962,1.869723 -0.1076,0.0896 -0.1778,0.198613 -0.18626,0.34043 -0.0413,0.07726 -0.0811,0.153106 -0.12242,0.228953 -0.18627,0.03034 -0.22754,0.203905 -0.32526,0.32385 -0.75106,0.81033 -1.68945,1.143705 -2.78377,1.142294 -5.81237,-0.0071 -11.62508,-0.0042 -17.4378,-0.0042 -0.33867,-0.01799 -0.67769,-0.03563 -1.0153,0.01376 -0.76623,-0.01658 -1.53105,-0.03845 -2.29729,0.01376 -0.34325,-0.07161 -0.68756,-0.04657 -1.03223,-0.02046 -1.21674,-0.0042 -2.434876,-0.0042 -3.651607,-0.01799 -0.113241,0 -0.344664,0.107597 -0.312914,-0.147461 0.02611,-0.205317 -0.195791,-0.496006 0.223309,-0.600781 1.224844,-0.301978 1.86443,-1.146528 1.86443,-2.403475 -0.0014,-2.72415 -0.0042,-5.448652 -0.0071,-8.171744 -0.0014,-0.149931 -0.01905,-0.261761 0.210961,-0.271286 0.621591,-0.02752 0.913701,-0.285397 1.101021,-0.898525 0,0 0.003,-0.01235 0.003,-0.01235 -0.0236,-0.201436 0.0868,-0.231422 0.26035,-0.230364 0.7359,0.0071 1.47321,0.01658 2.20911,0 2.4899,-0.0635 4.36562,-1.183922 5.55343,-3.364089 0.74012,-1.358547 0.98107,-2.8194 0.496,-4.335286 -0.23848,-0.749653 -0.67521,-1.380772 -1.26894,-1.91523 0.0991,-0.06632 0.17639,-0.119945 0.25753,-0.172509 3.38984,-2.167466 3.70558,-6.911975 0.623,-9.499952 -0.19155,-0.159809 -0.21907,-0.278342 -0.12982,-0.508706 1.27353,-3.232855 -0.54963,-6.916208 -3.97122,-7.8105 -0.18768,-0.05256 -0.37641,-0.104775 -0.56515,-0.157339 -0.0413,-0.249414 -0.0508,-0.504119 -0.14464,-0.744008 -0.006,-0.205317 -0.0702,-0.392642 -0.17074,-0.569031 -0.0843,-0.264583 -0.18345,-0.522463 -0.33514,-0.756708 -0.0607,-0.201083 -0.15134,-0.384528 -0.30727,-0.531989 -0.11853,-0.198261 -0.24659,-0.389819 -0.42157,-0.545747 -0.13511,-0.207786 -0.27693,-0.409222 -0.49318,-0.544336 -1.39066,-1.234722 -3.008507,-1.7335497 -4.852124,-1.4813137 -0.607836,0.0829 -0.607836,0.08819 -0.81033,-0.4988277 C 95.697443,6.1331917 91.931188,4.5209973 88.88601,5.926464 88.688807,6.0174806 88.56216,6.0506417 88.372013,5.8548501 86.971838,4.4134001 85.239699,3.8443696 83.270493,4.1131862 81.895013,4.2991001 80.720968,4.9535029 79.788224,5.999489 79.651699,6.1540056 79.559271,6.1952806 79.343018,6.104264 76.556427,4.9245751 73.362377,5.9966667 71.931863,8.6551999 c -0.331964,0.6159497 -0.638175,0.7796387 -1.33103,0.7729357 -2.996142,-0.03034 -5.433836,2.1978044 -5.808486,5.2267544 -0.0374,0.293511 -0.154517,0.33902 -0.391584,0.366536 -4.127147,0.484012 -6.450541,4.883856 -4.528255,8.579909 0.09525,0.183091 0.08819,0.274108 -0.05221,0.421569 -0.61595,0.649111 -1.043164,1.416756 -1.292578,2.271183 -0.902758,3.075517 0.756355,6.245225 3.795183,7.276042 0.07973,0.04939 0.158397,0.103364 0.26035,0.08396 0.56515,0.137583 1.134181,0.221897 1.718381,0.221897 4.937477,-0.0035 9.873544,0 14.811022,-0.0035 0.192969,0 0.385938,-0.0095 0.578908,-0.01376 0.4064,0.04939 0.813153,0.03034 1.219553,0.0194 0.234244,0.05644 0.592666,-0.186267 0.658636,0.274108 0.01517,0.202495 0.04692,0.401108 0.155927,0.577497 0.16122,0.699911 0.558095,1.292578 0.874889,1.920875 0.08678,0.170745 0.210961,0.305859 0.375003,0.4064 M 61.094883,32.774262 c 0.02893,0.01658 0.05927,0.03034 0.0896,0.03986 -0.03034,-0.0095 -0.06068,-0.02328 -0.0896,-0.03986 z m 0.04692,-0.844903 c 0.0014,0 0.0014,0 0.0014,0 0,0 0,0 -0.0014,0 z m 1.233311,0.346075 c -0.02328,0.03422 -0.03845,0.07161 -0.04551,0.110067 0.0071,-0.03845 0.02223,-0.07585 0.04551,-0.110067 0.01517,-0.02364 0.03457,-0.04551 0.05786,-0.06632 -0.02328,0.02081 -0.04269,0.04269 -0.05786,0.06632 z m 0.348545,-0.262113 c 0.01799,-0.02328 0.03175,-0.04798 0.04304,-0.07691 -0.01129,0.02893 -0.02505,0.05362 -0.04304,0.07691 z m 0.332316,0.505883 c 0.03175,0.03175 0.06209,0.05927 0.09243,0.08114 -0.03034,-0.02187 -0.06209,-0.04939 -0.09243,-0.08114 z M 102.54769,15.184763 c -0.0152,0.238477 -0.0522,0.476955 0.0236,0.712611 0.0688,0.540102 0.37747,0.8128 0.94121,0.836436 2.09868,0.08819 3.76202,1.657702 3.95076,3.745441 0.0797,0.890411 -0.13935,1.719792 -0.59831,2.487436 -0.37606,0.624064 -0.26459,1.062567 0.36653,1.446742 1.88666,1.147939 2.60068,3.231797 1.73638,5.24898 -0.31256,0.730603 -0.84173,1.335264 -1.53917,1.76142 -0.0896,0 -0.15029,0.04127 -0.18733,0.119592 -0.13652,0 -0.21378,0.117122 -0.32949,0.15875 -0.22437,0.08114 -0.4505,0.161219 -0.67522,0.240947 -0.30304,0.0441 -0.60501,0.08678 -0.90664,0.13088 -0.11994,-0.03281 -0.23706,-0.05644 -0.33902,0.0441 -0.26317,0.07161 -0.47272,0.200025 -0.51823,0.497416 l -0.004,0.0042 c -0.22437,0.319616 -0.16792,0.665691 0.15452,0.953558 0.0219,0.09525 0.066,0.166864 0.17638,0.171097 0.008,-0.04551 0.01,-0.09384 0.0261,-0.133703 -0.0166,0.04127 -0.1143,0.08819 -0.12277,0.133703 0.37218,0.159808 0.42863,0.162631 0.42863,0.01658 v 0 c 0,0.144991 0.59972,0.150283 0.8449,0.242711 1.22379,0.457552 1.94169,1.593144 1.77906,2.924175 -0.24518,2.003777 -1.68275,3.57893 -3.64913,3.941233 -0.29493,0.05362 -0.58703,0.06738 -0.88759,0.0702 -1.34903,0.0071 -2.69383,0 -4.042848,0.0035 -0.131233,0 -0.259292,-0.128058 -0.391583,-0.119944 0.05115,0.169686 0.05503,-0.14605 0.0042,-0.14605 h -0.0028 c -0.176389,0 -0.297745,0.133703 -0.297745,0.122767 v 0.0702 c 0,-0.0441 -0.427214,-0.02752 -0.578555,0.0508 -1.134181,-0.0039 -2.327628,0.0099 -3.461809,0.0035 -1.398763,-0.0067 -2.55905,-0.570441 -3.472744,-1.616428 0.08008,-0.112888 0.169686,-0.05644 0.25647,-0.05644 1.182511,-0.0042 2.357966,0.0035 3.540124,-0.0035 0.430037,-0.0035 0.769056,-0.263172 0.858662,-0.63253 0.104775,-0.433917 -0.04692,-0.807509 -0.406753,-1.032228 -0.19685,-0.122414 -0.414514,-0.117122 -0.63112,-0.117122 -2.268008,0 -4.536369,0.0035 -6.80473,-0.0035 -1.304925,-0.0042 -2.416881,-0.478367 -3.32105,-1.426281 -0.155575,-0.186266 -0.312914,-0.370769 -0.468489,-0.556683 -0.240947,-0.424744 -0.442383,-0.868186 -0.608894,-1.325739 -0.398286,-0.300566 -0.824089,-0.527755 -1.298223,-0.585611 0.474134,0.05786 0.899937,0.285045 1.298223,0.585611 -0.04833,-0.328083 -0.09666,-0.656166 -0.143581,-0.982486 -0.01517,-0.81033 -0.312561,-1.108075 -1.119011,-1.108075 -6.067425,-0.0035 -12.133439,-0.0085 -18.200863,0 -0.318559,0 -0.610659,-0.07444 -0.908403,-0.151694 -0.05786,-0.08114 -0.143228,-0.07444 -0.227189,-0.0702 -0.999067,-0.420158 -1.780469,-1.072092 -2.282119,-2.055989 -0.8255,-1.61925 -0.4064,-3.731683 0.994833,-4.897614 0.726369,-0.605014 0.753886,-0.903816 0.238478,-1.674283 -0.906639,-1.356078 -1.03752,-2.796117 -0.272698,-4.244269 0.762,-1.445684 2.007659,-2.16782 3.647723,-2.191103 0.156986,-0.0035 0.313972,0.01376 0.4699,0.02046 0.654402,0.02646 1.049866,-0.365125 1.000477,-1.023761 -0.05539,-0.722136 0,-1.422047 0.300214,-2.08915 0.871008,-1.931811 2.863497,-2.873022 4.90855,-2.320572 0.673806,0.183444 1.094317,-0.06597 1.254125,-0.742597 0.660047,-2.7837685 3.741208,-4.0488296 6.194425,-2.5410578 0.610305,0.3746497 1.067858,0.279753 1.446742,-0.2991552 1.656291,-2.5329443 5.07118,-2.5975027 6.851649,-0.1322916 0.425803,0.5884328 0.837848,0.6656918 1.448153,0.2702278 2.421467,-1.5737417 5.641975,-0.314325 6.244167,2.4443958 0.06315,0.2921 0.08819,0.591256 0.123825,0.889 0.07161,0.602192 0.678039,0.996245 1.220963,0.739775 1.641475,-0.771525 3.155598,-0.566208 4.575184,0.530578 0.17497,0.186267 0.32385,0.399697 0.53728,0.54998 0.4371,0.642056 0.75248,1.332442 0.85584,2.111023 m -4.132801,27.886024 c -0.101953,0 -0.194028,-0.02893 -0.261761,-0.100542 -0.03704,-0.03986 -0.06879,-0.187325 -0.06491,-0.238477 0.0085,-0.07585 0.07444,-0.14605 0.133703,-0.14605 h 1.255536 v 0.161219 c 0,0 0.300567,-0.0042 0.552453,0.0035 0.072,0 0.0829,-0.06068 0.0967,0.07585 0.01,0.09243 -0.10901,0.159808 -0.187328,0.195792 -0.0635,0.02893 -0.164042,0.04657 -0.234244,0.04657 -0.420512,0.0042 -0.868187,0 -1.290109,0.0035 z m -1.980141,10.874022 c -0.276931,-0.01517 -0.774348,-0.0039 -0.774348,-0.0039 v -0.02364 c 0,0 -0.7112,0.03457 -1.030816,-0.0053 -0.913695,-0.117123 -1.630186,-0.988131 -1.553281,-1.8923 0.0829,-0.95885 0.896056,-1.719792 1.842559,-1.650648 0.898525,0.06597 1.664758,0.715081 1.700388,1.740253 0.01799,0.529167 0.03175,1.059745 0.04304,1.588911 0.0025,0.185914 -0.03739,0.25647 -0.227541,0.246592 z m 0.187325,2.618317 c -0.02469,0.227541 0,0.458963 -0.02328,0.686505 -0.04692,0.446264 -0.43568,0.778581 -0.861483,0.752122 -0.415925,-0.02469 -0.792339,-0.420158 -0.799042,-0.840316 -0.0071,-0.425803 0.310092,-0.802217 0.753886,-0.832556 0.119592,-0.0081 0.322439,0 0.322439,0 v -0.0035 c 0,0 0.231423,0.0071 0.327731,0 0.180622,-0.01658 0.301978,0.03704 0.279753,0.239536 z M 126.2503,54.431258 c 0.0261,0.01517 0.0522,0.02893 0.0797,0.04022 -0.0275,-0.01129 -0.0536,-0.02505 -0.0797,-0.04022 z m 0.81985,-17.196505 c 0.0219,0.01235 0.0427,0.01799 0.0635,0.01658 -0.0208,0 -0.0416,-0.0042 -0.0635,-0.01658 z m 0.33479,-2.095852 c -0.0346,-0.140759 -0.0896,-0.265995 -0.15699,-0.385939 0.0674,0.119944 0.12242,0.24518 0.15699,0.385939 0.0222,0.08819 0.036,0.176388 0.0441,0.261761 -0.008,-0.08537 -0.0219,-0.173567 -0.0441,-0.261761 z" />
      </g>
    </g>
  </g>
</svg>
